<svg width="175" height="78" viewBox="0 0 175 78" fill="none" xmlns="http://www.w3.org/2000/svg">
<g filter="url(#filter0_d_3592_7729)">
<g clip-path="url(#clip0_3592_7729)">
<path d="M77.5152 38.7285C77.5152 56.6504 65.3415 71.7287 48.8114 76.1451C47.824 76.4089 46.8206 76.6346 45.8027 76.8209C43.5284 77.2374 41.1841 77.4548 38.7889 77.4548C36.3936 77.4548 33.9977 77.2329 31.6998 76.8072C31.4307 76.7578 31.1631 76.7053 30.8963 76.6491C29.9096 76.4454 28.9366 76.2036 27.9796 75.9254C27.7158 75.8486 27.4536 75.7696 27.1921 75.6875C23.3822 74.4941 19.8248 72.7275 16.623 70.4873C15.9617 70.0252 15.3156 69.5432 14.6854 69.0408C5.77423 61.9463 0.0625 51.0048 0.0625 38.7285C0.0625 17.3402 17.4007 0.0020752 38.7889 0.0020752C60.1771 0.0020752 77.5152 17.3402 77.5152 38.7285Z" fill="url(#paint0_linear_3592_7729)"/>
<path d="M51.0598 24.6672C50.9716 24.7774 50.9146 24.915 50.904 25.0655L46.3477 24.674L47.4081 23.3316L48.6403 22.4894L48.8789 22.3259L51.0598 24.6672Z" fill="#110C24"/>
<path d="M46.993 22.1683V22.1554L45.5328 20.7188C45.4857 21.3063 45.5237 21.9464 45.7973 22.3994C45.7973 22.3994 46.3317 22.4397 46.993 22.1691V22.1683Z" fill="#110C24"/>
<path d="M57.0388 21.3002C56.8822 21.8711 56.715 22.3606 56.5417 22.7802L52.3 24.9086C52.2924 24.8835 52.2841 24.86 52.2734 24.8364L53.7831 21.9554C54.0332 21.773 54.3083 21.6362 54.5919 21.5351H54.5926C55.7595 21.1178 57.0388 21.3002 57.0388 21.3002Z" fill="#110C24"/>
<path d="M26.1973 69.255C26.2467 69.3873 26.2938 69.518 26.3379 69.6465L29.2994 70.808C29.1215 70.1497 28.949 69.5066 28.7894 68.9038L26.1973 69.255Z" fill="#110C24"/>
<path d="M46.2176 30.83L44.3058 32.6681L43.5723 32.4301L44.2488 29.8738L45.8976 30.2691C45.9264 30.4963 46.045 30.6955 46.2176 30.83Z" fill="#110C24"/>
<path d="M52.153 41.7635C52.153 41.8433 52.166 41.9209 52.1888 41.9931L43.9161 45.8227C43.8469 45.7436 43.7626 45.6798 43.666 45.6357L46.7324 36.9632C46.8449 36.872 46.9529 36.7792 47.057 36.6857L52.2313 41.4313C52.1812 41.5317 52.153 41.6442 52.153 41.7635Z" fill="#110C24"/>
<path d="M46.2955 37.2995L43.3719 45.5653H43.3575C43.1431 45.5653 42.9493 45.6558 42.8125 45.8017L38.4386 42.9504C38.4432 42.9162 38.4454 42.8812 38.4454 42.8455C38.4454 42.5924 38.3322 42.3659 38.1543 42.2131L40.4758 39.228C40.6787 39.2105 40.8832 39.1915 41.09 39.1695C41.109 39.1672 41.1287 39.1657 41.1478 39.1634C43.3818 38.9239 45.0541 38.1896 46.2955 37.2995Z" fill="#110C24"/>
<path d="M38.1121 54.2981C38.0551 54.292 37.9996 54.2859 37.9426 54.2798H37.9418C37.7366 54.2578 37.5291 54.2357 37.32 54.2137L35.0806 50.7748C35.1065 50.6897 35.1202 50.5984 35.1202 50.5049C35.1202 50.1591 34.9309 49.8573 34.6504 49.6977L37.3573 43.637C37.4188 43.6568 37.4835 43.6697 37.5496 43.675L38.1121 54.2981Z" fill="#110C24"/>
<path d="M36.9295 54.1736C35.315 54.0048 33.6031 53.8414 31.9985 53.7707H31.9977C31.8138 53.7623 31.6321 53.7555 31.4512 53.7502L33.5575 51.1839C33.7232 51.339 33.946 51.434 34.1907 51.434C34.4849 51.434 34.7472 51.2972 34.9174 51.0828L36.9295 54.1736Z" fill="#110C24"/>
<path d="M52.5371 42.4138L49.9708 49.8305C49.8515 49.7507 49.7086 49.7036 49.5542 49.7036C49.3186 49.7036 49.1088 49.8123 48.972 49.9825L44.0371 46.6212C44.0804 46.5269 44.104 46.4228 44.104 46.3126C44.104 46.2343 44.0918 46.159 44.0698 46.0883L52.3447 42.2579C52.3995 42.3203 52.4641 42.3727 52.5371 42.4138Z" fill="#110C24"/>
<path d="M53.8389 25.2595C53.8389 25.2595 54.5215 26.5624 55.3866 28.3799L47.5882 30.0871C47.5837 30.0324 47.5738 29.9792 47.5586 29.9275L51.5592 25.8258C51.5782 25.8273 51.5972 25.8281 51.617 25.8281C51.969 25.8281 52.2609 25.5742 52.3194 25.2397L56.3482 23.2177C56.301 23.3165 56.2539 23.4108 56.2068 23.4997C55.0742 25.6365 53.8389 25.2595 53.8389 25.2595Z" fill="#110C24"/>
<path d="M51.2388 25.7201L47.4153 29.6409C47.2944 29.4835 47.1189 29.3695 46.9182 29.3277L46.2363 24.9698L50.9545 25.3749C51.01 25.5186 51.1104 25.6387 51.2388 25.7201Z" fill="#110C24"/>
<path d="M57.9245 34.301L56.9934 35.6465C56.8923 35.5948 56.7782 35.5659 56.6566 35.5659C56.4347 35.5659 56.2347 35.6624 56.0979 35.8167L50.0996 33.1015L55.7414 29.132C56.4833 30.7245 57.3035 32.5922 57.9245 34.301Z" fill="#110C24"/>
<path d="M49.6323 32.7755C49.6346 32.7686 49.6353 32.7648 49.6353 32.7648L48.5476 31.468L46.6654 33.4337L45.0372 32.9054L44.6328 32.7739L46.5028 30.9762C46.578 30.9982 46.6578 31.0096 46.7407 31.0096C47.1314 31.0096 47.4613 30.7459 47.5609 30.3863L55.4292 28.7725L49.6323 32.7755Z" fill="#110C24"/>
<path d="M56.1511 36.8633L53.2253 41.0912C53.1272 41.0441 53.0177 41.0175 52.9022 41.0175C52.7198 41.0175 52.5518 41.0836 52.4218 41.1931L47.2832 36.4794C47.3721 36.395 47.458 36.3099 47.5401 36.224C47.569 36.1944 47.5971 36.1647 47.6253 36.1351C48.6895 35.0062 49.2353 33.8561 49.4747 33.2351L55.9443 36.0879C55.9215 36.1601 55.9093 36.2354 55.9093 36.3137C55.9093 36.5311 56.0021 36.7272 56.1511 36.8633Z" fill="#110C24"/>
<path d="M46.6077 29.317C46.2656 29.3702 45.9905 29.6271 45.9114 29.9601L44.3242 29.5792L44.3311 29.5549L45.279 25.9701L45.4074 25.4843L45.9433 25.0754L46.6077 29.317Z" fill="#110C24"/>
<path d="M30.1391 55.3505L30.1315 55.3444L29.9103 55.3528L29.908 55.3551L29.9065 55.3528L27.832 55.4296L30.0471 58.1326C31.5013 56.585 32.5959 55.254 32.5959 55.254L30.1452 55.3444L30.1398 55.3513L30.1391 55.3505Z" fill="#110C24"/>
<path d="M19.6664 61.9829L19.6702 61.992L20.2137 62.3789C20.2867 62.309 20.3589 62.2413 20.4273 62.1767C20.6827 61.9373 20.9092 61.7328 21.1122 61.5564L19.3486 54.7037C19.2194 54.9204 19.0765 55.1119 18.9176 55.2761C17.1632 57.0967 15.538 58.4619 15.538 58.4619C15.538 58.4619 15.5266 58.5349 15.5061 58.6709C15.4932 58.7545 15.4772 58.8633 15.459 58.9917L19.6603 61.9852L19.6664 61.9829Z" fill="#110C24"/>
<path d="M24.3357 48.6684C24.1107 48.8272 23.964 49.0903 23.964 49.3867H20.5723C20.7448 47.5578 20.8482 45.5495 21.0648 43.64C21.1051 43.2812 21.1477 42.9468 21.1933 42.6343L24.3357 48.6684Z" fill="#110C24"/>
<path d="M19.325 62.1182L15.4103 59.3292C15.2681 60.3288 15.0363 62.0711 14.8652 63.9068L19.325 62.119V62.1182Z" fill="#110C24"/>
<path d="M29.3954 71.1753L26.459 70.0237C26.6103 70.514 26.7136 70.9693 26.7456 71.3722C26.7798 71.7979 26.8239 72.2714 26.8733 72.7686L30.078 73.6792C29.853 72.859 29.6212 72.0092 29.3962 71.1753H29.3954Z" fill="#110C24"/>
<path d="M15.8477 46.013C17.2471 46.8081 19.279 46.8218 19.279 46.8218L19.3831 45.7432L17.3634 44.2381L15.8477 46.013Z" fill="#110C24"/>
<path d="M21.9683 55.8491L21.7729 61.0067C21.6505 61.1025 21.516 61.2104 21.3677 61.3343L19.5586 54.3022C19.6939 54.0141 19.8125 53.6941 19.9166 53.3467C19.9364 53.2783 19.9561 53.2084 19.9752 53.1384L21.5456 54.832C21.5008 54.9278 21.4757 55.0342 21.4757 55.1475C21.4757 55.4706 21.6809 55.7457 21.9683 55.8491Z" fill="#110C24"/>
<path d="M54.3215 48.0791C52.1976 50.409 49.6891 53.93 49.1205 56.2834C48.9746 56.8839 48.8735 57.9443 48.8036 59.2806L45.7425 61.7595C45.7447 60.845 45.7493 60.1244 45.7577 59.7002C45.7736 58.9006 45.7478 58.1275 45.6535 57.4373C45.6231 57.2191 45.5859 57.0108 45.541 56.8117L49.6754 51.1881C50.0289 51.1288 50.2988 50.8217 50.2988 50.4508C50.2988 50.3178 50.2638 50.1923 50.2022 50.0844L52.8247 42.5073C52.8498 42.5095 52.8757 42.5111 52.9023 42.5111H52.9114L54.3215 48.0791Z" fill="#110C24"/>
<path d="M42.8294 46.8426L39.0386 54.3954C39.0386 54.3954 39.0325 54.3954 39.0302 54.3954C38.8295 54.3749 38.6251 54.3536 38.4191 54.3316L37.8535 43.6432C38.0618 43.5809 38.2351 43.4387 38.3392 43.2517L42.6531 46.0642C42.6249 46.1425 42.6097 46.2262 42.6097 46.3143C42.6097 46.5211 42.6934 46.7081 42.8294 46.8434V46.8426Z" fill="#110C24"/>
<path d="M24.4734 50.1827L22.3876 54.4175C22.3351 54.4061 22.2811 54.4 22.2257 54.4C22.0379 54.4 21.8661 54.4692 21.7346 54.5847L20.0684 52.7877C20.1056 52.6311 20.1413 52.4707 20.1748 52.3058C20.3359 51.5129 20.4507 50.6266 20.5442 49.6886H24.0188C24.0994 49.9068 24.2644 50.0846 24.4734 50.1827Z" fill="#110C24"/>
<path d="M23.9855 64.283L27.5461 64.3279C27.1774 63.2659 26.8657 62.537 27.0269 61.7745L24.9965 58.3204C24.1254 59.3892 23.3387 60.5233 23.1874 61.2804C23.0589 61.9235 23.4344 63.0159 23.9855 64.283Z" fill="#110C24"/>
<path d="M28.2399 59.9564C28.4831 59.7238 28.7241 59.4867 28.962 59.2487L25.2593 58.0013C25.2114 58.0584 25.1643 58.1154 25.1172 58.1724L27.1217 61.4494C27.2942 61.0032 27.6416 60.5281 28.2406 59.9564H28.2399Z" fill="#110C24"/>
<path d="M28.6578 53.944C27.2895 54.2838 26.5438 55.0105 25.9129 55.9364C25.8802 55.9835 25.8491 56.0314 25.8171 56.0793L25.8491 55.9387L22.959 55.2834C22.9674 55.2401 22.9712 55.1945 22.9712 55.1489C22.9712 54.9011 22.8503 54.6806 22.6641 54.5453L24.7727 50.2634C24.7963 50.2657 24.8198 50.2665 24.8442 50.2665C25.0083 50.2665 25.1619 50.2216 25.2934 50.1433L28.6578 53.944Z" fill="#110C24"/>
<path d="M28.0275 65.9386C27.9104 65.4505 27.7797 65.0211 27.6512 64.6341L24.1211 64.5893C24.1469 64.6486 24.1735 64.7071 24.2001 64.7664L28.2282 66.7496C28.1506 66.4433 28.083 66.1704 28.0275 65.9378V65.9386Z" fill="#110C24"/>
<path d="M28.71 68.6095C28.5694 68.0774 28.4394 67.5803 28.3261 67.1379L24.3984 65.204C24.964 66.434 25.6116 67.7581 26.086 68.9652L28.7107 68.6095H28.71Z" fill="#110C24"/>
<path d="M29.1695 59.0436C29.3968 58.8133 29.6195 58.583 29.8354 58.3557L27.5223 55.5325C27.2296 55.8275 26.2985 56.7784 25.3711 57.8723L29.1695 59.0444V59.0436Z" fill="#110C24"/>
<path d="M30.3343 45.3913L25.575 48.8964C25.4709 48.7405 25.3181 48.6204 25.1387 48.5566L25.4275 38.3197C25.6115 38.3068 25.803 38.2961 26.0037 38.2862C26.0151 38.2855 26.0258 38.2855 26.0372 38.2847H26.0516L30.1876 44.4351C30.1176 44.5491 30.0766 44.6836 30.0766 44.8281C30.0766 45.0531 30.1762 45.2545 30.3343 45.3913Z" fill="#110C24"/>
<path d="M37.0902 43.4902L34.3659 49.5919H34.3651C34.3089 49.5805 34.2519 49.5752 34.1926 49.5752C33.6795 49.5752 33.2637 49.991 33.2637 50.5041C33.2637 50.6599 33.3017 50.8066 33.3701 50.9351L31.0676 53.74C30.9749 53.7377 30.8806 53.7354 30.7894 53.7339C30.3105 53.7278 29.8803 53.7491 29.4911 53.7955C29.3193 53.816 29.1558 53.8411 28.9993 53.87L25.5254 49.9454C25.6508 49.7926 25.7261 49.598 25.7261 49.3859C25.7261 49.3152 25.7177 49.2475 25.7017 49.1814L30.6351 45.5494C30.6959 45.5654 30.7598 45.5738 30.8251 45.5738C31.1406 45.5738 31.4104 45.3784 31.5199 45.1017L36.8212 43.0927C36.8698 43.2508 36.9648 43.3883 37.0902 43.4902Z" fill="#110C24"/>
<path d="M54.3472 55.7689L55.0982 53.1737L52.1458 52.4668L50.4902 54.6165C50.4902 54.6165 52.6278 55.3934 54.348 55.7689H54.3472Z" fill="#110C24"/>
<path d="M31.3961 38.8203L30.8389 44.0805H30.8244C30.6686 44.0805 30.5242 44.1284 30.4041 44.2105L26.4141 38.276C26.6056 38.2745 26.7995 38.2775 26.9979 38.2851C28.3045 38.3383 29.7503 38.5808 31.3961 38.8203Z" fill="#110C24"/>
<path d="M19.4183 45.3873L19.7239 42.2228C19.3621 43.1685 18.5099 43.7165 17.6016 44.0343L19.4175 45.3881L19.4183 45.3873Z" fill="#110C24"/>
<path d="M40.0612 39.2619L37.8833 42.0631C37.7982 42.0327 37.7062 42.0167 37.6104 42.0167C37.1741 42.0167 36.8161 42.3534 36.7834 42.7822L31.5658 44.7593C31.5407 44.4887 31.3712 44.2591 31.1348 44.1504L31.6942 38.8644C31.8911 38.8925 32.0895 38.9206 32.2925 38.948C34.4916 39.2475 37.0396 39.4839 40.0612 39.2619Z" fill="#110C24"/>
<path d="M25.1204 38.3418L24.8331 48.5042C24.7548 48.5049 24.6788 48.5156 24.6066 48.5361L21.2695 42.1288C21.3205 41.8362 21.3744 41.5648 21.4352 41.3155C21.9704 39.0867 22.919 38.5318 25.1204 38.3418Z" fill="#110C24"/>
<path d="M47.0106 21.7453L47.0911 19.6974C46.7491 19.4717 46.3287 19.2877 45.8209 19.2125C45.8209 19.2125 45.6651 19.705 45.5762 20.3344L47.0106 21.7453Z" fill="#110C24"/>
<path d="M50.123 21.0436L50.5533 21.4738L53.4783 18.5488V9.50458C53.8561 9.37763 54.129 9.02113 54.129 8.60001C54.129 8.07247 53.7018 7.64526 53.1743 7.64526C52.6467 7.64526 52.2195 8.07247 52.2195 8.60001C52.2195 9.02113 52.4924 9.37763 52.8702 9.50458V18.2964L51.9672 19.1995V12.7109C52.345 12.5839 52.6178 12.2274 52.6178 11.8063C52.6178 11.2788 52.1906 10.8516 51.6631 10.8516C51.1356 10.8516 50.7084 11.2788 50.7084 11.8063C50.7084 12.2274 50.9813 12.5839 51.359 12.7109V19.8076L50.123 21.0436Z" fill="#110C24"/>
<path d="M52.8048 23.1691L52.0728 24.5655C51.9496 24.4629 51.7907 24.4013 51.6174 24.4013C51.5034 24.4013 51.3955 24.4279 51.2997 24.4758L49.2344 22.26L49.771 22.2425L52.1039 22.168L52.8048 23.1691Z" fill="#110C24"/>
<path d="M47.3027 22.0213C47.6471 21.8344 48.0074 21.5561 48.3335 21.1426C48.3335 21.1426 48.053 20.4752 47.3856 19.918L47.3027 22.0213Z" fill="#110C24"/>
<path d="M25.7252 56.2206C25.2752 56.9283 24.8601 57.7325 24.2794 58.5595C23.5124 59.6519 23.1589 59.9932 22.7135 60.3223C22.5318 60.4561 22.3342 60.5891 22.0879 60.77L22.2726 55.8922C22.509 55.877 22.7158 55.7515 22.842 55.5668L25.7252 56.2206Z" fill="#110C24"/>
<path d="M43.3539 54.6511C43.3235 54.6526 43.2924 54.6534 43.2612 54.6557C42.5277 54.7119 41.3434 54.6253 39.9211 54.4847C39.7379 54.4672 39.5502 54.4474 39.3594 54.4284L43.0833 47.0086L43.1396 46.8961L43.1434 47.0291L43.3539 54.6511Z" fill="#110C24"/>
<path d="M45.7852 74.1645C45.792 75.2523 45.7973 76.1743 45.8019 76.8197C46.8197 76.6334 47.8231 76.4077 48.8105 76.1439C48.8037 75.8657 48.7953 75.5487 48.787 75.1983L45.7852 74.1645Z" fill="#110C24"/>
<path d="M55.9708 61.1114L53.9716 63.7027L53.3711 64.4811C54.2278 63.7939 55.1361 62.919 55.9708 61.8252V61.1114Z" fill="#110C24"/>
<path d="M30.8994 76.6495C29.9127 76.4458 28.9397 76.2041 27.9827 75.9259C27.719 75.8491 27.4567 75.77 27.1952 75.6879C27.0972 74.8472 26.9968 73.9449 26.9102 73.0951L30.1757 74.0232C30.4365 74.9749 30.6858 75.8765 30.8994 76.6495Z" fill="#110C24"/>
<path d="M15.5854 45.8477L16.9788 44.2157C15.7481 44.5144 14.5957 44.4597 14.5957 44.4597C14.7226 45.064 15.0982 45.5133 15.5854 45.8477Z" fill="#110C24"/>
<path d="M55.6259 7.5965V17.5871L52.168 21.045L52.5982 21.4752L58.8626 15.2109V9.01037C59.2404 8.88343 59.5133 8.52692 59.5133 8.1058C59.5133 7.57826 59.0861 7.15105 58.5585 7.15105C58.031 7.15105 57.6038 7.57826 57.6038 8.1058C57.6038 8.52692 57.8767 8.88343 58.2545 9.01037V14.9593L56.234 16.979V7.5965C56.6118 7.46955 56.8847 7.11305 56.8847 6.69193C56.8847 6.16438 56.4575 5.73718 55.9299 5.73718C55.4024 5.73718 54.9752 6.16438 54.9752 6.69193C54.9752 7.11305 55.2481 7.46955 55.6259 7.5965Z" fill="#110C24"/>
<path d="M16.934 67.4776L14.7516 65.2952C14.6543 66.6734 14.611 68.012 14.6878 69.0389C15.3179 69.5414 15.964 70.0233 16.6254 70.4855C16.5957 69.6577 16.6489 68.6041 16.9332 67.4776H16.934Z" fill="#110C24"/>
<path d="M19.6176 62.3287L14.8333 64.2473C14.8287 64.296 14.8249 64.3446 14.8203 64.3933C14.8059 64.5613 14.7922 64.7293 14.7793 64.8973L17.024 67.142C17.0643 67.0044 17.1069 66.866 17.154 66.7269C17.5432 65.586 18.1916 64.407 19.2421 63.3374C19.5127 63.0623 19.7605 62.816 19.9893 62.594L19.6176 62.3295V62.3287Z" fill="#110C24"/>
<path d="M52.3477 52.2026L55.1815 52.8814L55.3936 52.1464L53.6977 50.4497L52.3477 52.2026Z" fill="#110C24"/>
<path d="M55.3348 57.7386C55.1714 58.2152 54.9525 58.7556 54.6621 59.3189L58.1808 56.3467L55.3348 57.7386Z" fill="#110C24"/>
<path d="M49.8164 63.9005V66.6096C49.8164 66.6096 50.8 66.2539 52.1257 65.3881L49.8164 63.9012V63.9005Z" fill="#110C24"/>
<path d="M55.4785 52.9516L56.4279 53.1789L55.6404 52.3914L55.4785 52.9516Z" fill="#110C24"/>
<path d="M49.3191 51.1595L45.4438 56.4311C45.2158 55.6679 44.8471 55.0902 44.2732 54.8188C44.09 54.7322 43.8863 54.6774 43.6605 54.6569L43.4492 47.0532C43.605 47.0342 43.7457 46.9665 43.8567 46.8669L48.8318 50.2549C48.8151 50.3165 48.806 50.3819 48.806 50.4495C48.806 50.7802 49.0211 51.0607 49.3191 51.1595Z" fill="#110C24"/>
<path d="M45.7499 66.208C45.7499 66.3365 45.7507 66.4657 45.7514 66.5957L47.9292 68.2506L48.6757 67.232C48.6742 66.9515 48.6734 66.671 48.6734 66.3897L45.7461 64.5905C45.7476 65.1119 45.7491 65.6531 45.7507 66.2065L45.7499 66.208Z" fill="#110C24"/>
<path d="M57.3993 36.4044C57.4031 36.374 57.4054 36.3436 57.4054 36.3124C57.4054 36.1315 57.3408 35.9658 57.2344 35.8366L58.0531 34.653C58.0964 34.7769 58.1389 34.8993 58.18 35.0209C58.2013 35.084 58.2218 35.1471 58.2416 35.211C58.4042 35.7195 58.5312 36.2463 58.6254 36.7814C58.6368 36.8453 58.6475 36.9099 58.6581 36.9737L57.3993 36.4044Z" fill="#110C24"/>
<path d="M48.6698 65.7448C48.6721 63.7403 48.698 61.7753 48.7633 60.1243C48.7694 59.9753 48.7755 59.8316 48.7816 59.6887L45.7402 62.1516C45.7402 62.2884 45.7402 62.4283 45.7402 62.5712C45.7402 63.0022 45.7402 63.4621 45.741 63.9448C45.741 64.0406 45.741 64.1371 45.741 64.2336L48.6691 66.0329C48.6691 65.9364 48.6691 65.8406 48.6691 65.744L48.6698 65.7448Z" fill="#110C24"/>
<path d="M48.6845 68.8262C48.6838 68.7228 48.6823 68.6202 48.6815 68.5168V68.4378C48.68 68.2075 48.6785 67.9764 48.6769 67.7438L48.1699 68.4355L48.6845 68.8262Z" fill="#110C24"/>
<path d="M56.8395 53.5918L55.3945 53.246L54.6465 55.832C54.9764 55.8966 55.2842 55.9422 55.5495 55.9604L57.4773 54.2288L56.8403 53.5918H56.8395Z" fill="#110C24"/>
<path d="M45.7539 66.9781C45.7592 68.3775 45.7661 69.8264 45.7737 71.1916L47.75 68.4953L45.7539 66.9781Z" fill="#110C24"/>
<path d="M57.6909 54.4424L55.7449 56.1908C55.7023 56.4241 55.6172 56.8278 55.4629 57.3356L58.7178 55.7438C58.7338 55.6686 58.7498 55.5933 58.7642 55.5173L57.6901 54.4432L57.6909 54.4424Z" fill="#110C24"/>
<path d="M57.8068 44.4394C57.0071 45.8593 55.6495 46.659 54.5693 47.8129L53.2109 42.4463C53.4709 42.3292 53.6511 42.0677 53.6511 41.7644C53.6511 41.5782 53.5826 41.4071 53.4694 41.2772L56.4157 37.0196C56.4917 37.0462 56.5738 37.0606 56.659 37.0606C56.9318 37.0606 57.1713 36.9139 57.3013 36.695L58.7114 37.3335C58.8208 37.3829 58.8147 38.3498 58.8223 38.489C58.9326 40.4425 58.7851 42.7017 57.8068 44.4394Z" fill="#110C24"/>
<path d="M58.5642 56.4196L56.2754 58.529V61.4107C57.2279 60.0675 58.0572 58.4203 58.5642 56.4196Z" fill="#110C24"/>
<path d="M55.9708 60.6143V58.6105L54.2262 60.0837C53.5915 61.1008 52.7082 62.1277 51.4844 62.9335L53.7952 63.4329L55.97 60.6135L55.9708 60.6143Z" fill="#110C24"/>
<path d="M48.7783 74.7719C48.7456 73.2873 48.7084 71.3178 48.6871 69.2091L47.9893 68.6785L45.7734 71.7009C45.775 71.9631 45.7765 72.2216 45.778 72.4747C45.7803 72.9125 45.7826 73.3367 45.7848 73.7403C45.7848 73.7745 45.7848 73.808 45.7848 73.8414L48.7806 74.8737C48.7798 74.8395 48.779 74.8068 48.7783 74.7719Z" fill="#110C24"/>
<path d="M51.1152 63.1651C50.7861 63.3589 50.4349 63.5376 50.0586 63.6957L52.3991 65.2031C52.4219 65.1878 52.4447 65.1711 52.4683 65.1552L53.591 63.7002L51.1152 63.1651Z" fill="#110C24"/>
<path d="M43.142 46.8963L43.0859 47.0085C43.1056 47.0161 43.1254 47.0229 43.1458 47.029L43.142 46.8963Z" fill="#FCF7FF"/>
<path d="M100.946 5.41502H90.5078V22.1513H100.946C103.388 22.1513 105.599 21.2152 107.198 19.7013C108.799 18.1873 109.788 16.094 109.788 13.7839C109.788 9.16079 105.829 5.41502 100.946 5.41502ZM104.6 16.9308C103.749 17.7367 102.83 18.0166 101.531 18.0166L94.9811 17.9312C94.6742 17.927 94.4258 17.6906 94.4258 17.3995V9.92757C94.4258 9.59875 94.7076 9.33149 95.0565 9.33149H101.192C103.798 9.33149 105.997 11.3492 105.979 13.8161C105.969 15.032 105.444 16.1318 104.602 16.9308H104.6ZM130.073 7.16267C130.073 8.25548 129.189 9.1412 128.1 9.1412H112.343C111.253 9.1412 110.37 8.25548 110.37 7.16267C110.37 6.06986 111.253 5.18414 112.343 5.18414H128.1C129.189 5.18414 130.073 6.06986 130.073 7.16267ZM130.073 20.1742C130.073 21.267 129.189 22.1527 128.1 22.1527H112.343C111.253 22.1527 110.37 21.267 110.37 20.1742C110.37 19.0814 111.253 18.1957 112.343 18.1957H128.1C129.189 18.1957 130.073 19.0814 130.073 20.1742ZM111.875 13.6677C111.875 12.5749 112.759 11.6892 113.848 11.6892H126.594C127.684 11.6892 128.567 12.5749 128.567 13.6677C128.567 14.7605 127.684 15.6463 126.594 15.6463H113.848C112.759 15.6463 111.875 14.7605 111.875 13.6677ZM151.629 7.16267C151.629 8.25548 150.745 9.1412 149.656 9.1412H133.899C132.809 9.1412 131.926 8.25548 131.926 7.16267C131.926 6.06986 132.809 5.18414 133.899 5.18414H149.656C150.745 5.18414 151.629 6.06986 151.629 7.16267ZM151.629 20.1742C151.629 21.267 150.745 22.1527 149.656 22.1527H133.899C132.809 22.1527 131.926 21.267 131.926 20.1742C131.926 19.0814 132.809 18.1957 133.899 18.1957H149.656C150.745 18.1957 151.629 19.0814 151.629 20.1742ZM133.433 13.6691C133.433 12.5763 134.316 11.6906 135.405 11.6906H148.151C149.241 11.6906 150.124 12.5763 150.124 13.6691C150.124 14.7619 149.241 15.6477 148.151 15.6477H135.405C134.316 15.6477 133.433 14.7619 133.433 13.6691ZM169.882 17.0777L172.843 22.1541H168.245L165.632 17.6752H157.768V22.1541H153.787V13.7797H167.088C167.711 13.7797 168.276 13.5292 168.685 13.1248C169.093 12.7205 169.346 12.1622 169.346 11.5451C169.346 10.311 168.336 9.3119 167.09 9.3119H153.788V5.40802H167.215C170.638 5.40802 173.412 8.15333 173.412 11.5395C173.412 13.2326 172.718 14.7661 171.597 15.8757C171.101 16.3655 170.522 16.7741 169.882 17.0749V17.0777ZM110.039 24.7917V41.535H106.268V35.0551H94.2793V41.535H90.5078V24.7917H94.2793V31.2716H106.268V24.7917H110.039ZM133.576 41.535H129.018L122.567 30.3327C122.411 30.0612 122.019 30.0612 121.863 30.3327L115.412 41.535H110.854L119.568 26.3994C120.744 24.3551 123.685 24.3551 124.863 26.3994L133.576 41.535ZM148.364 31.4451V29.086H136.996V37.6004H148.364V35.1671H152.985V35.2412C152.985 38.8751 150.048 41.8205 146.424 41.8205H138.543C135.343 41.8205 132.749 39.2193 132.749 36.0094V30.6769C132.749 27.4671 135.343 24.8659 138.543 24.8659H146.424C150.048 24.8659 152.985 27.8113 152.985 31.4451H148.364ZM174.616 41.4343L174.497 41.535H169.375L162.159 32.9101L158.037 36.3774V41.5336H153.959V24.7903H158.037V31.0365L159.536 29.7758L162.661 27.1452L165.46 24.7903H171.806L165.281 30.2795L174.615 41.4329L174.616 41.4343Z" fill="url(#paint1_linear_3592_7729)"/>
<path d="M108.605 71.8298L90.7601 71.8974V67.8417L99.0067 60.9808C101.677 58.784 102.792 57.2293 102.792 55.1677C102.792 52.6329 101.541 51.281 99.3109 51.281C96.9788 51.281 95.6269 52.8694 95.6269 55.6746H90.1855C90.1855 50.0642 93.7681 46.4141 99.2771 46.4141C104.989 46.4141 108.402 49.4897 108.402 54.8297C108.402 58.2432 106.341 61.0146 103.231 63.617L99.4799 66.7602H108.605V71.8298Z" fill="white"/>
<path d="M108.605 71.8298L90.7601 71.8974V67.8417L99.0067 60.9808C101.677 58.784 102.792 57.2293 102.792 55.1677C102.792 52.6329 101.541 51.281 99.3109 51.281C96.9788 51.281 95.6269 52.8694 95.6269 55.6746H90.1855C90.1855 50.0642 93.7681 46.4141 99.2771 46.4141C104.989 46.4141 108.402 49.4897 108.402 54.8297C108.402 58.2432 106.341 61.0146 103.231 63.617L99.4799 66.7602H108.605V71.8298Z" fill="url(#paint2_linear_3592_7729)"/>
<path d="M110.852 59.4599C110.852 51.7203 115.245 46.4141 121.768 46.4141C128.291 46.4141 132.685 51.7203 132.685 59.4599C132.685 67.1996 128.629 72.3368 121.768 72.3368C114.907 72.3368 110.852 67.1996 110.852 59.4599ZM116.259 59.4599C116.259 64.8337 118.287 67.5375 121.768 67.5375C125.249 67.5375 127.277 64.8337 127.277 59.4599C127.277 53.9172 125.249 51.2134 121.768 51.2134C118.287 51.2134 116.259 53.9172 116.259 59.4599Z" fill="white"/>
<path d="M110.852 59.4599C110.852 51.7203 115.245 46.4141 121.768 46.4141C128.291 46.4141 132.685 51.7203 132.685 59.4599C132.685 67.1996 128.629 72.3368 121.768 72.3368C114.907 72.3368 110.852 67.1996 110.852 59.4599ZM116.259 59.4599C116.259 64.8337 118.287 67.5375 121.768 67.5375C125.249 67.5375 127.277 64.8337 127.277 59.4599C127.277 53.9172 125.249 51.2134 121.768 51.2134C118.287 51.2134 116.259 53.9172 116.259 59.4599Z" fill="url(#paint3_linear_3592_7729)"/>
<path d="M153.327 71.8298L135.482 71.8974V67.8417L143.729 60.9808C146.399 58.784 147.514 57.2293 147.514 55.1677C147.514 52.6329 146.264 51.281 144.033 51.281C141.701 51.281 140.349 52.8694 140.349 55.6746H134.908C134.908 50.0642 138.49 46.4141 143.999 46.4141C149.711 46.4141 153.125 49.4897 153.125 54.8297C153.125 58.2432 151.063 61.0146 147.954 63.617L144.202 66.7602H153.327V71.8298Z" fill="white"/>
<path d="M153.327 71.8298L135.482 71.8974V67.8417L143.729 60.9808C146.399 58.784 147.514 57.2293 147.514 55.1677C147.514 52.6329 146.264 51.281 144.033 51.281C141.701 51.281 140.349 52.8694 140.349 55.6746H134.908C134.908 50.0642 138.49 46.4141 143.999 46.4141C149.711 46.4141 153.125 49.4897 153.125 54.8297C153.125 58.2432 151.063 61.0146 147.954 63.617L144.202 66.7602H153.327V71.8298Z" fill="url(#paint4_linear_3592_7729)"/>
<path d="M159.528 53.613L164.429 46.8873H170.681L164.97 54.5593C165.308 54.4917 165.646 54.4579 165.984 54.4579C171.121 54.4579 174.636 58.0067 174.636 63.1439C174.636 68.6191 170.614 72.3368 165.071 72.3368C159.461 72.3368 155.371 68.3487 155.371 63.1101C155.371 60.0345 156.486 57.7701 159.528 53.613ZM160.981 63.1777C160.981 65.7463 162.638 67.5037 165.071 67.5037C167.437 67.5037 169.093 65.7463 169.093 63.1777C169.093 60.6091 167.471 58.8854 165.071 58.8854C162.604 58.8854 160.981 60.6091 160.981 63.1777Z" fill="white"/>
<path d="M159.528 53.613L164.429 46.8873H170.681L164.97 54.5593C165.308 54.4917 165.646 54.4579 165.984 54.4579C171.121 54.4579 174.636 58.0067 174.636 63.1439C174.636 68.6191 170.614 72.3368 165.071 72.3368C159.461 72.3368 155.371 68.3487 155.371 63.1101C155.371 60.0345 156.486 57.7701 159.528 53.613ZM160.981 63.1777C160.981 65.7463 162.638 67.5037 165.071 67.5037C167.437 67.5037 169.093 65.7463 169.093 63.1777C169.093 60.6091 167.471 58.8854 165.071 58.8854C162.604 58.8854 160.981 60.6091 160.981 63.1777Z" fill="url(#paint5_linear_3592_7729)"/>
</g>
</g>
<defs>
<filter id="filter0_d_3592_7729" x="0.000462454" y="0" width="174.815" height="77.569" filterUnits="userSpaceOnUse" color-interpolation-filters="sRGB">
<feFlood flood-opacity="0" result="BackgroundImageFix"/>
<feColorMatrix in="SourceAlpha" type="matrix" values="0 0 0 0 0 0 0 0 0 0 0 0 0 0 0 0 0 0 127 0" result="hardAlpha"/>
<feOffset dy="0.0600844"/>
<feGaussianBlur stdDeviation="0.0300422"/>
<feComposite in2="hardAlpha" operator="out"/>
<feColorMatrix type="matrix" values="0 0 0 0 0 0 0 0 0 0 0 0 0 0 0 0 0 0 0.25 0"/>
<feBlend mode="normal" in2="BackgroundImageFix" result="effect1_dropShadow_3592_7729"/>
<feBlend mode="normal" in="SourceGraphic" in2="effect1_dropShadow_3592_7729" result="shape"/>
</filter>
<linearGradient id="paint0_linear_3592_7729" x1="0.0625" y1="38.7285" x2="77.5152" y2="38.7285" gradientUnits="userSpaceOnUse">
<stop stop-color="#8247FF"/>
<stop offset="1" stop-color="#F5C144"/>
</linearGradient>
<linearGradient id="paint1_linear_3592_7729" x1="174.688" y1="5.12092" x2="70.297" y2="53.5193" gradientUnits="userSpaceOnUse">
<stop stop-color="#8247FF"/>
<stop offset="1" stop-color="#F5C144"/>
</linearGradient>
<linearGradient id="paint2_linear_3592_7729" x1="174.708" y1="46.3694" x2="85.8316" y2="104.842" gradientUnits="userSpaceOnUse">
<stop stop-color="#8247FF"/>
<stop offset="1" stop-color="#F5C144"/>
</linearGradient>
<linearGradient id="paint3_linear_3592_7729" x1="174.708" y1="46.3694" x2="85.8316" y2="104.842" gradientUnits="userSpaceOnUse">
<stop stop-color="#8247FF"/>
<stop offset="1" stop-color="#F5C144"/>
</linearGradient>
<linearGradient id="paint4_linear_3592_7729" x1="174.708" y1="46.3694" x2="85.8316" y2="104.842" gradientUnits="userSpaceOnUse">
<stop stop-color="#8247FF"/>
<stop offset="1" stop-color="#F5C144"/>
</linearGradient>
<linearGradient id="paint5_linear_3592_7729" x1="174.708" y1="46.3694" x2="85.8316" y2="104.842" gradientUnits="userSpaceOnUse">
<stop stop-color="#8247FF"/>
<stop offset="1" stop-color="#F5C144"/>
</linearGradient>
<clipPath id="clip0_3592_7729">
<rect width="174.695" height="77.4488" fill="white" transform="translate(0.0605469)"/>
</clipPath>
</defs>
</svg>
