<svg width="5399" height="5399" viewBox="0 0 5399 5399" fill="none" xmlns="http://www.w3.org/2000/svg">
<g clip-path="url(#clip0_2_131855)">
<path d="M5399 2699.5C5399 3948.79 4550.41 4999.85 3398.14 5307.7C3329.31 5326.09 3259.37 5341.83 3188.42 5354.81C3029.88 5383.85 2866.46 5399 2699.5 5399C2532.54 5399 2365.52 5383.53 2205.34 5353.86C2186.58 5350.41 2167.93 5346.75 2149.33 5342.83C2080.55 5328.63 2012.73 5311.78 1946.02 5292.39C1927.63 5287.04 1909.35 5281.53 1891.12 5275.8C1625.55 5192.61 1377.57 5069.47 1154.39 4913.32C1108.29 4881.1 1063.25 4847.51 1019.32 4812.48C398.148 4317.95 0 3555.25 0 2699.5C0 1208.59 1208.59 0 2699.5 0C4190.41 0 5399 1208.59 5399 2699.5Z" fill="url(#paint0_linear_2_131855)"/>
<path d="M3554.91 1719.38C3548.77 1727.07 3544.79 1736.66 3544.05 1747.15L3226.45 1719.86L3300.36 1626.29L3386.26 1567.58L3402.89 1556.18L3554.91 1719.38Z" fill="#110C24"/>
<path d="M3271.32 1545.22V1544.31L3169.53 1444.17C3166.25 1485.13 3168.9 1529.74 3187.97 1561.32C3187.97 1561.32 3225.22 1564.13 3271.32 1545.27V1545.22Z" fill="#110C24"/>
<path d="M3971.58 1484.64C3960.67 1524.44 3949.01 1558.56 3936.93 1587.81L3641.26 1736.17C3640.73 1734.43 3640.15 1732.78 3639.41 1731.14L3744.64 1530.32C3762.07 1517.6 3781.25 1508.06 3801.02 1501.02H3801.07C3882.41 1471.93 3971.58 1484.64 3971.58 1484.64Z" fill="#110C24"/>
<path d="M1821.68 4827.63C1825.12 4836.85 1828.41 4845.96 1831.48 4854.92L2037.92 4935.88C2025.52 4890 2013.49 4845.17 2002.36 4803.15L1821.68 4827.63Z" fill="#110C24"/>
<path d="M3217.17 2149.01L3083.91 2277.13L3032.77 2260.55L3079.93 2082.35L3194.86 2109.91C3196.88 2125.75 3205.14 2139.63 3217.17 2149.01Z" fill="#110C24"/>
<path d="M3631.21 2911.12C3631.21 2916.69 3632.11 2922.09 3633.7 2927.13L3057.03 3194.08C3052.21 3188.57 3046.33 3184.12 3039.6 3181.04L3253.35 2576.51C3261.2 2570.15 3268.72 2563.69 3275.98 2557.17L3636.66 2887.97C3633.17 2894.96 3631.21 2902.81 3631.21 2911.12Z" fill="#110C24"/>
<path d="M3222.51 2600.03L3018.72 3176.21H3017.71C3002.77 3176.21 2989.26 3182.52 2979.72 3192.69L2674.83 2993.94C2675.15 2991.55 2675.31 2989.11 2675.31 2986.62C2675.31 2968.98 2667.41 2953.19 2655.01 2942.54L2816.84 2734.46C2830.98 2733.24 2845.24 2731.91 2859.65 2730.38C2860.97 2730.22 2862.35 2730.11 2863.68 2729.95C3019.41 2713.26 3135.98 2662.08 3222.51 2600.03Z" fill="#110C24"/>
<path d="M2652.21 3784.84C2648.23 3784.41 2644.37 3783.99 2640.39 3783.57H2640.34C2626.03 3782.03 2611.57 3780.49 2596.99 3778.96L2440.89 3539.24C2442.69 3533.31 2443.65 3526.95 2443.65 3520.43C2443.65 3496.32 2430.45 3475.28 2410.9 3464.16L2599.59 3041.69C2603.88 3043.07 2608.39 3043.97 2613 3044.34L2652.21 3784.84Z" fill="#110C24"/>
<path d="M2569.87 3776.15C2457.32 3764.39 2337.99 3753 2226.14 3748.07H2226.08C2213.26 3747.49 2200.6 3747.01 2187.98 3746.64L2334.81 3567.75C2346.36 3578.56 2361.89 3585.19 2378.95 3585.19C2399.46 3585.19 2417.74 3575.65 2429.61 3560.71L2569.87 3776.15Z" fill="#110C24"/>
<path d="M3657.63 2956.48L3478.75 3473.47C3470.43 3467.91 3460.47 3464.63 3449.71 3464.63C3433.29 3464.63 3418.66 3472.2 3409.12 3484.07L3065.13 3249.76C3068.15 3243.19 3069.79 3235.93 3069.79 3228.25C3069.79 3222.79 3068.94 3217.55 3067.41 3212.62L3644.23 2945.61C3648.04 2949.96 3652.55 2953.61 3657.63 2956.48Z" fill="#110C24"/>
<path d="M3748.51 1760.66C3748.51 1760.66 3796.09 1851.48 3856.39 1978.17L3312.79 2097.18C3312.48 2093.37 3311.79 2089.66 3310.73 2086.06L3589.6 1800.14C3590.92 1800.24 3592.25 1800.29 3593.63 1800.29C3618.16 1800.29 3638.51 1782.6 3642.59 1759.28L3923.42 1618.34C3920.14 1625.22 3916.85 1631.79 3913.57 1637.99C3834.61 1786.94 3748.51 1760.66 3748.51 1760.66Z" fill="#110C24"/>
<path d="M3567.19 1792.72L3300.67 2066.03C3292.24 2055.06 3280 2047.11 3266.01 2044.2L3218.48 1740.42L3547.38 1768.66C3551.25 1778.68 3558.24 1787.05 3567.19 1792.72Z" fill="#110C24"/>
<path d="M4033.32 2390.95L3968.41 2484.74C3961.36 2481.13 3953.41 2479.12 3944.93 2479.12C3929.46 2479.12 3915.53 2485.85 3905.99 2496.6L3487.86 2307.33L3881.14 2030.63C3932.85 2141.64 3990.03 2271.83 4033.32 2390.95Z" fill="#110C24"/>
<path d="M3455.23 2284.66C3455.39 2284.18 3455.44 2283.92 3455.44 2283.92L3379.62 2193.52L3248.42 2330.54L3134.92 2293.72L3106.73 2284.55L3237.08 2159.24C3242.33 2160.77 3247.89 2161.57 3253.67 2161.57C3280.9 2161.57 3303.9 2143.18 3310.84 2118.12L3859.32 2005.62L3455.23 2284.66Z" fill="#110C24"/>
<path d="M3909.69 2569.52L3705.74 2864.23C3698.91 2860.95 3691.28 2859.1 3683.22 2859.1C3670.51 2859.1 3658.8 2863.71 3649.73 2871.34L3291.54 2542.76C3297.74 2536.88 3303.73 2530.94 3309.45 2524.96C3311.46 2522.89 3313.42 2520.82 3315.38 2518.76C3389.57 2440.07 3427.61 2359.9 3444.3 2316.61L3895.28 2515.47C3893.69 2520.51 3892.84 2525.75 3892.84 2531.21C3892.84 2546.36 3899.31 2560.03 3909.69 2569.52Z" fill="#110C24"/>
<path d="M3244.52 2043.56C3220.68 2047.27 3201.5 2065.18 3195.99 2088.38L3085.35 2061.84L3085.82 2060.14L3151.9 1810.25L3160.85 1776.39L3198.21 1747.89L3244.52 2043.56Z" fill="#110C24"/>
<path d="M2096.35 3858.27L2095.82 3857.85L2080.4 3858.43L2080.24 3858.59L2080.13 3858.43L1935.53 3863.78L2089.94 4052.21C2191.3 3944.32 2267.6 3851.54 2267.6 3851.54L2096.77 3857.85L2096.4 3858.33L2096.35 3858.27Z" fill="#110C24"/>
<path d="M1366.43 4320.48L1366.69 4321.12L1404.58 4348.09C1409.66 4343.21 1414.7 4338.5 1419.47 4333.99C1437.27 4317.3 1453.06 4303.05 1467.21 4290.76L1344.28 3813.07C1335.27 3828.18 1325.31 3841.53 1314.23 3852.97C1191.94 3979.88 1078.65 4075.04 1078.65 4075.04C1078.65 4075.04 1077.86 4080.13 1076.43 4089.62C1075.53 4095.44 1074.41 4103.02 1073.14 4111.98L1366 4320.64L1366.43 4320.48Z" fill="#110C24"/>
<path d="M1691.89 3392.4C1676.21 3403.48 1665.98 3421.81 1665.98 3442.48H1429.55C1441.58 3314.99 1448.79 3175 1463.89 3041.89C1466.69 3016.88 1469.66 2993.57 1472.84 2971.79L1691.89 3392.4Z" fill="#110C24"/>
<path d="M1342.6 4330.02L1069.72 4135.61C1059.81 4205.29 1043.65 4326.74 1031.73 4454.7L1342.6 4330.07V4330.02Z" fill="#110C24"/>
<path d="M2044.81 4961.31L1840.12 4881.03C1850.66 4915.21 1857.87 4946.95 1860.09 4975.03C1862.48 5004.7 1865.55 5037.72 1869 5072.37L2092.39 5135.85C2076.71 5078.67 2060.55 5019.43 2044.86 4961.31H2044.81Z" fill="#110C24"/>
<path d="M1100.22 3207.27C1197.77 3262.7 1339.41 3263.65 1339.41 3263.65L1346.67 3188.46L1205.88 3083.55L1100.22 3207.27Z" fill="#110C24"/>
<path d="M1527.02 3893.09L1513.4 4252.61C1504.87 4259.29 1495.49 4266.81 1485.16 4275.45L1359.05 3785.26C1368.48 3765.18 1376.75 3742.87 1384.01 3718.66C1385.39 3713.89 1386.76 3709.02 1388.09 3704.14L1497.56 3822.2C1494.43 3828.87 1492.69 3836.29 1492.69 3844.19C1492.69 3866.71 1506.99 3885.89 1527.02 3893.09Z" fill="#110C24"/>
<path d="M3782.14 3351.35C3634.09 3513.75 3459.23 3759.19 3419.6 3923.24C3409.43 3965.1 3402.38 4039.02 3397.5 4132.17L3184.12 4304.96C3184.28 4241.22 3184.6 4190.99 3185.18 4161.42C3186.3 4105.68 3184.49 4051.79 3177.92 4003.68C3175.8 3988.47 3173.21 3973.95 3170.08 3960.07L3458.28 3568.07C3482.92 3563.93 3501.73 3542.53 3501.73 3516.67C3501.73 3507.4 3499.29 3498.65 3495 3491.13L3677.81 2962.95C3679.56 2963.11 3681.36 2963.21 3683.21 2963.21H3683.85L3782.14 3351.35Z" fill="#110C24"/>
<path d="M2981 3265.13L2716.75 3791.62C2716.75 3791.62 2716.33 3791.62 2716.17 3791.62C2702.18 3790.19 2687.93 3788.7 2673.57 3787.17L2634.14 3042.11C2648.66 3037.76 2660.74 3027.86 2668 3014.82L2968.71 3210.87C2966.75 3216.33 2965.69 3222.16 2965.69 3228.31C2965.69 3242.72 2971.52 3255.75 2981 3265.19V3265.13Z" fill="#110C24"/>
<path d="M1701.48 3498.12L1556.08 3793.31C1552.42 3792.52 1548.66 3792.1 1544.79 3792.1C1531.7 3792.1 1519.73 3796.92 1510.56 3804.97L1394.41 3679.71C1397.01 3668.79 1399.5 3657.61 1401.83 3646.12C1413.07 3590.85 1421.07 3529.07 1427.58 3463.68H1669.79C1675.41 3478.89 1686.9 3491.29 1701.48 3498.12Z" fill="#110C24"/>
<path d="M1667.55 4480.93L1915.74 4484.06C1890.04 4410.03 1868.32 4359.22 1879.55 4306.07L1738.02 4065.3C1677.3 4139.8 1622.46 4218.85 1611.91 4271.63C1602.96 4316.46 1629.13 4392.6 1667.55 4480.93Z" fill="#110C24"/>
<path d="M1964.19 4179.33C1981.15 4163.11 1997.95 4146.58 2014.53 4130L1756.43 4043.04C1753.09 4047.02 1749.8 4050.99 1746.52 4054.97L1886.25 4283.39C1898.28 4252.29 1922.49 4219.17 1964.25 4179.33H1964.19Z" fill="#110C24"/>
<path d="M1993.2 3760.19C1897.83 3783.88 1845.85 3834.53 1801.87 3899.07C1799.59 3902.36 1797.42 3905.69 1795.19 3909.03L1797.42 3899.23L1595.96 3853.55C1596.54 3850.53 1596.81 3847.36 1596.81 3844.18C1596.81 3826.9 1588.38 3811.54 1575.4 3802.1L1722.39 3503.63C1724.03 3503.78 1725.67 3503.84 1727.37 3503.84C1738.81 3503.84 1749.52 3500.71 1758.68 3495.25L1993.2 3760.19Z" fill="#110C24"/>
<path d="M1949.23 4596.29C1941.07 4562.27 1931.95 4532.33 1923 4505.36L1676.93 4502.23C1678.73 4506.37 1680.58 4510.45 1682.44 4514.58L1963.22 4652.82C1957.81 4631.47 1953.1 4612.45 1949.23 4596.23V4596.29Z" fill="#110C24"/>
<path d="M1996.88 4782.49C1987.08 4745.39 1978.02 4710.74 1970.13 4679.9L1696.34 4545.1C1735.76 4630.84 1780.91 4723.14 1813.97 4807.28L1996.94 4782.49H1996.88Z" fill="#110C24"/>
<path d="M2028.83 4115.69C2044.68 4099.63 2060.2 4083.58 2075.25 4067.73L1914.01 3870.94C1893.61 3891.5 1828.7 3957.78 1764.05 4034.03L2028.83 4115.74V4115.69Z" fill="#110C24"/>
<path d="M2110.15 3163.98L1778.39 3408.31C1771.13 3397.44 1760.48 3389.07 1747.98 3384.62L1768.11 2671.04C1780.93 2670.14 1794.29 2669.4 1808.28 2668.71C1809.07 2668.65 1809.81 2668.65 1810.61 2668.6H1811.61L2099.92 3097.32C2095.04 3105.27 2092.18 3114.65 2092.18 3124.72C2092.18 3140.4 2099.12 3154.44 2110.15 3163.98Z" fill="#110C24"/>
<path d="M2580.95 3031.51L2391.04 3456.84H2390.99C2387.07 3456.05 2383.09 3455.68 2378.96 3455.68C2343.19 3455.68 2314.21 3484.66 2314.21 3520.43C2314.21 3531.29 2316.86 3541.52 2321.63 3550.47L2161.13 3746C2154.66 3745.84 2148.09 3745.68 2141.74 3745.57C2108.35 3745.15 2078.36 3746.63 2051.23 3749.86C2039.26 3751.29 2027.87 3753.04 2016.95 3755.06L1774.8 3481.48C1783.54 3470.83 1788.79 3457.27 1788.79 3442.48C1788.79 3437.56 1788.2 3432.84 1787.09 3428.23L2130.98 3175.06C2135.22 3176.17 2139.67 3176.75 2144.23 3176.75C2166.22 3176.75 2185.03 3163.13 2192.66 3143.85L2562.19 3003.8C2565.58 3014.82 2572.21 3024.41 2580.95 3031.51Z" fill="#110C24"/>
<path d="M3783.96 3887.48L3836.32 3706.58L3630.51 3657.3L3515.11 3807.15C3515.11 3807.15 3664.11 3861.3 3784.02 3887.48H3783.96Z" fill="#110C24"/>
<path d="M2184.03 2705.95L2145.19 3072.63H2144.19C2133.32 3072.63 2123.26 3075.97 2114.89 3081.69L1836.75 2668.01C1850.11 2667.91 1863.62 2668.12 1877.45 2668.65C1968.53 2672.36 2069.32 2689.26 2184.03 2705.95Z" fill="#110C24"/>
<path d="M1349.06 3163.82L1370.36 2943.23C1345.14 3009.15 1285.74 3047.35 1222.42 3069.5L1349.01 3163.87L1349.06 3163.82Z" fill="#110C24"/>
<path d="M2788.31 2736.69L2636.5 2931.95C2630.57 2929.83 2624.16 2928.72 2617.48 2928.72C2587.07 2928.72 2562.11 2952.19 2559.83 2982.08L2196.13 3119.9C2194.38 3101.03 2182.56 3085.03 2166.08 3077.46L2205.08 2708.98C2218.8 2710.94 2232.63 2712.9 2246.78 2714.81C2400.07 2735.69 2577.69 2752.17 2788.31 2736.69Z" fill="#110C24"/>
<path d="M1746.9 2672.69L1726.87 3381.08C1721.42 3381.13 1716.12 3381.87 1711.08 3383.3L1478.47 2936.67C1482.02 2916.27 1485.78 2897.35 1490.02 2879.97C1527.32 2724.62 1593.45 2685.93 1746.9 2672.69Z" fill="#110C24"/>
<path d="M3272.46 1515.7L3278.08 1372.95C3254.24 1357.21 3224.93 1344.39 3189.54 1339.14C3189.54 1339.14 3178.68 1373.48 3172.48 1417.35L3272.46 1515.7Z" fill="#110C24"/>
<path d="M3489.58 1466.89L3519.57 1496.89L3723.46 1292.99V662.545C3749.8 653.696 3768.82 628.845 3768.82 599.49C3768.82 562.716 3739.04 532.938 3702.27 532.938C3665.5 532.938 3635.72 562.716 3635.72 599.49C3635.72 628.845 3654.74 653.696 3681.07 662.545V1275.4L3618.13 1338.35V886.046C3644.46 877.197 3663.48 852.346 3663.48 822.991C3663.48 786.218 3633.7 756.439 3596.93 756.439C3560.16 756.439 3530.38 786.218 3530.38 822.991C3530.38 852.346 3549.4 877.197 3575.74 886.046V1380.74L3489.58 1466.89Z" fill="#110C24"/>
<path d="M3676.41 1614.94L3625.38 1712.28C3616.79 1705.13 3605.72 1700.84 3593.64 1700.84C3585.69 1700.84 3578.17 1702.69 3571.49 1706.03L3427.52 1551.57L3464.93 1550.35L3627.55 1545.16L3676.41 1614.94Z" fill="#110C24"/>
<path d="M3292.93 1534.93C3316.93 1521.9 3342.05 1502.5 3364.78 1473.68C3364.78 1473.68 3345.23 1427.16 3298.71 1388.32L3292.93 1534.93Z" fill="#110C24"/>
<path d="M1788.79 3919.01C1757.43 3968.34 1728.5 4024.4 1688.01 4082.05C1634.55 4158.19 1609.91 4181.98 1578.86 4204.93C1566.19 4214.25 1552.42 4223.53 1535.25 4236.14L1548.13 3896.12C1564.61 3895.06 1579.02 3886.31 1587.81 3873.44L1788.79 3919.01Z" fill="#110C24"/>
<path d="M3017.71 3809.53C3015.59 3809.63 3013.42 3809.69 3011.25 3809.85C2960.11 3813.77 2877.56 3807.73 2778.42 3797.92C2765.65 3796.7 2752.56 3795.33 2739.26 3794L2998.85 3276.79L3002.77 3268.95L3003.03 3278.22L3017.71 3809.53Z" fill="#110C24"/>
<path d="M3187.33 5169.71C3187.81 5245.54 3188.18 5309.81 3188.49 5354.8C3259.44 5341.82 3329.39 5326.08 3398.22 5307.69C3397.74 5288.3 3397.16 5266.2 3396.58 5241.78L3187.33 5169.71Z" fill="#110C24"/>
<path d="M3897.17 4259.87L3757.82 4440.51L3715.96 4494.76C3775.67 4446.86 3838.99 4385.88 3897.17 4309.63V4259.87Z" fill="#110C24"/>
<path d="M2149.35 5342.83C2080.57 5328.63 2012.75 5311.78 1946.04 5292.38C1927.65 5287.03 1909.37 5281.52 1891.14 5275.8C1884.31 5217.19 1877.31 5154.3 1871.27 5095.06L2098.91 5159.76C2117.08 5226.1 2134.46 5288.94 2149.35 5342.83Z" fill="#110C24"/>
<path d="M1082.02 3195.93L1179.14 3082.16C1093.36 3102.99 1013.03 3099.17 1013.03 3099.17C1021.88 3141.3 1048.05 3172.61 1082.02 3195.93Z" fill="#110C24"/>
<path d="M3873 529.443V1225.86L3631.96 1466.9L3661.96 1496.89L4098.63 1060.22V628C4124.96 619.151 4143.98 594.3 4143.98 564.945C4143.98 528.172 4114.2 498.393 4077.43 498.393C4040.66 498.393 4010.88 528.172 4010.88 564.945C4010.88 594.3 4029.9 619.151 4056.24 628V1042.68L3915.39 1183.47V529.443C3941.73 520.594 3960.75 495.743 3960.75 466.388C3960.75 429.615 3930.97 399.836 3894.2 399.836C3857.43 399.836 3827.65 429.615 3827.65 466.388C3827.65 495.743 3846.67 520.594 3873 529.443Z" fill="#110C24"/>
<path d="M1175.9 4703.63L1023.78 4551.51C1017 4647.57 1013.97 4740.88 1019.33 4812.47C1063.25 4847.5 1108.29 4881.09 1154.39 4913.31C1152.33 4855.6 1156.03 4782.16 1175.85 4703.63H1175.9Z" fill="#110C24"/>
<path d="M1363.14 4344.65L1029.63 4478.39C1029.32 4481.78 1029.05 4485.17 1028.73 4488.57C1027.73 4500.28 1026.77 4511.99 1025.87 4523.7L1182.34 4680.17C1185.15 4670.58 1188.12 4660.93 1191.4 4651.24C1218.53 4571.7 1263.73 4489.52 1336.96 4414.97C1355.82 4395.79 1373.1 4378.62 1389.05 4363.14L1363.14 4344.71V4344.65Z" fill="#110C24"/>
<path d="M3644.65 3638.85L3842.19 3686.17L3856.97 3634.93L3738.75 3516.66L3644.65 3638.85Z" fill="#110C24"/>
<path d="M3852.76 4024.7C3841.37 4057.92 3826.11 4095.6 3805.87 4134.86L4051.15 3927.68L3852.76 4024.7Z" fill="#110C24"/>
<path d="M3467.96 4454.18V4643.03C3467.96 4643.03 3536.53 4618.23 3628.94 4557.88L3467.96 4454.23V4454.18Z" fill="#110C24"/>
<path d="M3862.81 3691.1L3928.99 3706.95L3874.09 3652.05L3862.81 3691.1Z" fill="#110C24"/>
<path d="M3433.4 3566.15L3163.27 3933.62C3147.38 3880.42 3121.68 3840.15 3081.67 3821.24C3068.9 3815.19 3054.7 3811.38 3038.97 3809.95L3024.23 3279.92C3035.1 3278.59 3044.9 3273.87 3052.64 3266.93L3399.44 3503.1C3398.27 3507.39 3397.64 3511.95 3397.64 3516.66C3397.64 3539.71 3412.63 3559.27 3433.4 3566.15Z" fill="#110C24"/>
<path d="M3184.55 4615.05C3184.55 4624 3184.6 4633.01 3184.66 4642.07L3336.46 4757.42L3388.5 4686.42C3388.39 4666.87 3388.34 4647.32 3388.34 4627.71L3184.29 4502.29C3184.39 4538.64 3184.5 4576.37 3184.6 4614.94L3184.55 4615.05Z" fill="#110C24"/>
<path d="M3996.6 2537.61C3996.87 2535.49 3997.03 2533.38 3997.03 2531.2C3997.03 2518.59 3992.52 2507.04 3985.11 2498.03L4042.17 2415.53C4045.19 2424.17 4048.16 2432.7 4051.02 2441.18C4052.51 2445.58 4053.94 2449.97 4055.31 2454.42C4066.65 2489.87 4075.5 2526.59 4082.07 2563.9C4082.87 2568.35 4083.61 2572.85 4084.35 2577.3L3996.6 2537.61Z" fill="#110C24"/>
<path d="M3388.31 4582.73C3388.47 4443 3390.27 4306.03 3394.83 4190.94C3395.25 4180.55 3395.67 4170.54 3396.1 4160.58L3184.09 4332.26C3184.09 4341.8 3184.09 4351.54 3184.09 4361.51C3184.09 4391.55 3184.09 4423.61 3184.15 4457.26C3184.15 4463.93 3184.15 4470.66 3184.15 4477.39L3388.25 4602.81C3388.25 4596.08 3388.25 4589.41 3388.25 4582.68L3388.31 4582.73Z" fill="#110C24"/>
<path d="M3389.17 4797.53C3389.12 4790.33 3389.01 4783.17 3388.96 4775.97V4770.46C3388.86 4754.4 3388.75 4738.29 3388.64 4722.08L3353.3 4770.3L3389.17 4797.53Z" fill="#110C24"/>
<path d="M3957.63 3735.61L3856.91 3711.5L3804.77 3891.76C3827.76 3896.27 3849.22 3899.45 3867.71 3900.72L4002.09 3780.01L3957.69 3735.61H3957.63Z" fill="#110C24"/>
<path d="M3184.8 4668.77C3185.18 4766.32 3185.65 4867.32 3186.18 4962.48L3323.95 4774.54L3184.8 4668.77Z" fill="#110C24"/>
<path d="M4017.05 3795L3881.4 3916.88C3878.43 3933.14 3872.5 3961.28 3861.74 3996.67L4088.63 3885.72C4089.75 3880.47 4090.86 3875.23 4091.87 3869.93L4017 3795.06L4017.05 3795Z" fill="#110C24"/>
<path d="M4024.96 3097.59C3969.22 3196.57 3874.58 3252.32 3799.29 3332.75L3704.6 2958.66C3722.72 2950.5 3735.28 2932.27 3735.28 2911.13C3735.28 2898.15 3730.51 2886.23 3722.61 2877.17L3927.99 2580.38C3933.29 2582.24 3939.01 2583.24 3944.95 2583.24C3963.97 2583.24 3980.66 2573.02 3989.72 2557.76L4088.02 2602.27C4095.65 2605.71 4095.22 2673.11 4095.75 2682.81C4103.43 2818.99 4093.15 2976.46 4024.96 3097.59Z" fill="#110C24"/>
<path d="M4077.84 3932.82L3918.3 4079.86V4280.74C3984.69 4187.11 4042.5 4072.29 4077.84 3932.82Z" fill="#110C24"/>
<path d="M3897.14 4225.16V4085.48L3775.53 4188.17C3731.29 4259.07 3669.72 4330.66 3584.41 4386.82L3745.49 4421.64L3897.09 4225.11L3897.14 4225.16Z" fill="#110C24"/>
<path d="M3395.81 5212.11C3393.54 5108.62 3390.94 4971.33 3389.46 4824.34L3340.81 4787.36L3186.36 4998.04C3186.46 5016.32 3186.57 5034.33 3186.67 5051.98C3186.83 5082.5 3186.99 5112.07 3187.15 5140.2C3187.15 5142.59 3187.15 5144.92 3187.15 5147.25L3395.97 5219.21C3395.92 5216.82 3395.87 5214.54 3395.81 5212.11Z" fill="#110C24"/>
<path d="M3558.6 4402.99C3535.66 4416.5 3511.18 4428.95 3484.95 4439.97L3648.1 4545.05C3649.69 4543.99 3651.28 4542.82 3652.92 4541.71L3731.18 4440.29L3558.6 4402.99Z" fill="#110C24"/>
<path d="M3002.76 3268.96L2998.84 3276.81C3000.21 3277.34 3001.59 3277.81 3003.02 3278.24L3002.76 3268.96Z" fill="#FCF7FF"/>
</g>
<defs>
<linearGradient id="paint0_linear_2_131855" x1="0" y1="2699.5" x2="5399" y2="2699.5" gradientUnits="userSpaceOnUse">
<stop stop-color="#8247FF"/>
<stop offset="1" stop-color="#F5C144"/>
</linearGradient>
<clipPath id="clip0_2_131855">
<rect width="5399" height="5399" fill="white"/>
</clipPath>
</defs>
</svg>
