<svg width="212" height="94" viewBox="0 0 212 94" fill="none" xmlns="http://www.w3.org/2000/svg">
<path d="M93.7444 46.8729C93.7444 68.5637 79.0106 86.8128 59.0043 92.158C57.8092 92.4772 56.5948 92.7505 55.363 92.9759C52.6103 93.48 49.773 93.7432 46.8741 93.7432C43.9752 93.7432 41.0754 93.4745 38.2942 92.9593C37.9686 92.8995 37.6447 92.836 37.3218 92.768C36.1276 92.5214 34.95 92.2288 33.7918 91.8921C33.4725 91.7992 33.1551 91.7035 32.8386 91.6042C28.2276 90.1598 23.922 88.0217 20.047 85.3105C19.2466 84.7511 18.4646 84.1678 17.7019 83.5597C6.91677 74.9734 0.00390625 61.7309 0.00390625 46.8729C0.00390625 20.9869 20.9881 0.00268555 46.8741 0.00268555C72.7601 0.00268555 93.7444 20.9869 93.7444 46.8729Z" fill="url(#paint0_linear_952_6202)"/>
<path d="M61.7246 29.8551C61.6178 29.9885 61.5488 30.155 61.536 30.3372L56.0215 29.8634L57.3049 28.2386L58.7962 27.2193L59.0851 27.0215L61.7246 29.8551Z" fill="#110C24"/>
<path d="M56.8018 26.8309V26.8152L55.0345 25.0764C54.9774 25.7876 55.0234 26.5622 55.3546 27.1105C55.3546 27.1105 56.0014 27.1593 56.8018 26.8318V26.8309Z" fill="#110C24"/>
<path d="M68.9608 25.7802C68.7713 26.4711 68.5689 27.0636 68.3591 27.5715L63.2256 30.1475C63.2164 30.1171 63.2062 30.0886 63.1934 30.0601L65.0205 26.5733C65.3232 26.3525 65.6562 26.1869 65.9994 26.0645H66.0003C67.4125 25.5594 68.9608 25.7802 68.9608 25.7802Z" fill="#110C24"/>
<path d="M31.6328 83.8198C31.6926 83.9799 31.7497 84.1381 31.803 84.2936L35.3873 85.6994C35.172 84.9027 34.9632 84.1243 34.77 83.3948L31.6328 83.8198Z" fill="#110C24"/>
<path d="M55.8618 37.3146L53.548 39.5391L52.6602 39.2512L53.479 36.1572L55.4744 36.6356C55.5094 36.9107 55.6529 37.1517 55.8618 37.3146Z" fill="#110C24"/>
<path d="M63.0472 50.5465C63.0472 50.6431 63.0628 50.7369 63.0904 50.8243L53.0781 55.4593C52.9943 55.3636 52.8922 55.2863 52.7754 55.2329L56.4867 44.7367C56.6228 44.6263 56.7535 44.514 56.8795 44.4009L63.1419 50.1444C63.0812 50.2659 63.0472 50.402 63.0472 50.5465Z" fill="#110C24"/>
<path d="M55.9567 45.144L52.4184 55.1481H52.4009C52.1415 55.1481 51.9069 55.2576 51.7413 55.4342L46.4476 51.9833C46.4531 51.9419 46.4559 51.8996 46.4559 51.8564C46.4559 51.55 46.3188 51.2758 46.1035 51.0909L48.9132 47.4781C49.1588 47.4569 49.4063 47.4339 49.6565 47.4072C49.6795 47.4045 49.7035 47.4026 49.7265 47.3999C52.4303 47.1101 54.4543 46.2214 55.9567 45.144Z" fill="#110C24"/>
<path d="M46.0549 65.7172C45.9859 65.7098 45.9187 65.7025 45.8497 65.6951H45.8488C45.6004 65.6684 45.3493 65.6417 45.0963 65.6151L42.386 61.453C42.4172 61.35 42.4338 61.2396 42.4338 61.1264C42.4338 60.7078 42.2047 60.3426 41.8652 60.1494L45.1413 52.8142C45.2159 52.8381 45.2941 52.8538 45.3741 52.8602L46.0549 65.7172Z" fill="#110C24"/>
<path d="M44.6226 65.5666C42.6685 65.3624 40.5967 65.1646 38.6546 65.079H38.6537C38.431 65.0689 38.2111 65.0606 37.9922 65.0542L40.5415 61.9483C40.7421 62.136 41.0116 62.251 41.3079 62.251C41.6639 62.251 41.9813 62.0854 42.1874 61.8259L44.6226 65.5666Z" fill="#110C24"/>
<path d="M63.512 51.3331L60.4061 60.3096C60.2617 60.213 60.0887 60.1559 59.902 60.1559C59.6168 60.1559 59.3628 60.2875 59.1972 60.4936L53.2246 56.4253C53.277 56.3112 53.3056 56.1852 53.3056 56.0518C53.3056 55.957 53.2908 55.866 53.2642 55.7804L63.2793 51.1445C63.3455 51.22 63.4237 51.2835 63.512 51.3331Z" fill="#110C24"/>
<path d="M65.0874 30.5717C65.0874 30.5717 65.9135 32.1486 66.9605 34.3483L57.5222 36.4146C57.5167 36.3484 57.5047 36.284 57.4863 36.2214L62.3283 31.2571C62.3513 31.2589 62.3743 31.2599 62.3982 31.2599C62.8242 31.2599 63.1774 30.9526 63.2483 30.5478L68.1243 28.1006C68.0672 28.2202 68.0102 28.3343 67.9532 28.4419C66.5824 31.028 65.0874 30.5717 65.0874 30.5717Z" fill="#110C24"/>
<path d="M61.9412 31.129L57.3136 35.8743C57.1674 35.6839 56.9548 35.5459 56.712 35.4953L55.8867 30.2209L61.5971 30.7113C61.6643 30.8852 61.7857 31.0305 61.9412 31.129Z" fill="#110C24"/>
<path d="M70.031 41.5153L68.904 43.1437C68.7817 43.0811 68.6437 43.0461 68.4965 43.0461C68.2278 43.0461 67.9859 43.163 67.8203 43.3497L60.5605 40.0635L67.3888 35.2593C68.2867 37.1867 69.2794 39.4471 70.031 41.5153Z" fill="#110C24"/>
<path d="M59.9961 39.6687C59.9989 39.6604 59.9998 39.6558 59.9998 39.6558L58.6833 38.0863L56.4054 40.4654L54.4348 39.826L53.9453 39.6668L56.2085 37.491C56.2996 37.5177 56.3962 37.5315 56.4965 37.5315C56.9693 37.5315 57.3686 37.2123 57.4891 36.7771L67.0121 34.824L59.9961 39.6687Z" fill="#110C24"/>
<path d="M67.885 44.616L64.344 49.733C64.2253 49.676 64.0928 49.6438 63.953 49.6438C63.7322 49.6438 63.5288 49.7238 63.3715 49.8563L57.1523 44.1514C57.26 44.0493 57.3639 43.9462 57.4633 43.8423C57.4983 43.8064 57.5323 43.7705 57.5663 43.7346C58.8543 42.3684 59.5149 40.9765 59.8047 40.2249L67.6348 43.6776C67.6072 43.765 67.5925 43.8561 67.5925 43.9508C67.5925 44.214 67.7047 44.4513 67.885 44.616Z" fill="#110C24"/>
<path d="M56.3359 35.4832C55.9219 35.5476 55.5889 35.8586 55.4932 36.2615L53.5723 35.8006L53.5805 35.7712L54.7278 31.4324L54.8833 30.8446L55.5319 30.3496L56.3359 35.4832Z" fill="#110C24"/>
<path d="M36.4035 66.9906L36.3943 66.9833L36.1266 66.9934L36.1238 66.9961L36.122 66.9934L33.6113 67.0863L36.2922 70.3578C38.0522 68.4847 39.377 66.8738 39.377 66.8738L36.4109 66.9833L36.4044 66.9915L36.4035 66.9906Z" fill="#110C24"/>
<path d="M23.7289 75.0184L23.7335 75.0294L24.3913 75.4977C24.4796 75.4131 24.567 75.3312 24.6498 75.253C24.9589 74.9632 25.2331 74.7157 25.4787 74.5023L23.3444 66.2085C23.188 66.4707 23.015 66.7025 22.8227 66.9013C20.6994 69.1047 18.7324 70.757 18.7324 70.757C18.7324 70.757 18.7186 70.8453 18.6938 71.01C18.6781 71.1112 18.6588 71.2427 18.6367 71.3982L23.7216 75.0212L23.7289 75.0184Z" fill="#110C24"/>
<path d="M29.3791 58.903C29.1068 59.0953 28.9292 59.4136 28.9292 59.7724H24.8242C25.0331 57.5589 25.1582 55.1283 25.4204 52.8173C25.4691 52.383 25.5207 51.9782 25.5759 51.6001L29.3791 58.903Z" fill="#110C24"/>
<path d="M23.3156 75.1816L18.5776 71.8062C18.4056 73.016 18.125 75.1246 17.918 77.3464L23.3156 75.1825V75.1816Z" fill="#110C24"/>
<path d="M35.5051 86.1433L31.9512 84.7495C32.1343 85.3429 32.2594 85.894 32.298 86.3816C32.3394 86.8968 32.3928 87.4699 32.4526 88.0716L36.3313 89.1738C36.059 88.1811 35.7784 87.1525 35.506 86.1433H35.5051Z" fill="#110C24"/>
<path d="M19.1074 55.6897C20.8011 56.652 23.2603 56.6686 23.2603 56.6686L23.3863 55.3631L20.9419 53.5415L19.1074 55.6897Z" fill="#110C24"/>
<path d="M26.516 67.5942L26.2796 73.8364C26.1314 73.9523 25.9686 74.0829 25.7892 74.2329L23.5996 65.722C23.7634 65.3733 23.9069 64.986 24.0329 64.5656C24.0568 64.4828 24.0808 64.3981 24.1038 64.3135L26.0045 66.3632C25.9502 66.4792 25.9198 66.608 25.9198 66.745C25.9198 67.136 26.1682 67.4691 26.516 67.5942Z" fill="#110C24"/>
<path d="M65.6718 58.1899C63.1013 61.0097 60.0653 65.2711 59.3772 68.1194C59.2006 68.8462 59.0782 70.1296 58.9936 71.747L55.2887 74.7471C55.2915 73.6403 55.297 72.7682 55.3071 72.2548C55.3264 71.287 55.2952 70.3513 55.1811 69.516C55.1443 69.2519 55.0992 68.9999 55.0449 68.7588L60.0488 61.9527C60.4766 61.8809 60.8032 61.5092 60.8032 61.0603C60.8032 60.8993 60.7609 60.7475 60.6864 60.6168L63.8603 51.4463C63.8907 51.449 63.922 51.4509 63.9542 51.4509H63.9652L65.6718 58.1899Z" fill="#110C24"/>
<path d="M51.7625 56.694L47.1745 65.8351C47.1745 65.8351 47.1671 65.8351 47.1644 65.8351C46.9215 65.8102 46.674 65.7845 46.4247 65.7578L45.7402 52.8217C45.9923 52.7463 46.2021 52.5742 46.3281 52.3479L51.5491 55.7519C51.5151 55.8467 51.4967 55.9479 51.4967 56.0546C51.4967 56.3048 51.5979 56.5311 51.7625 56.6949V56.694Z" fill="#110C24"/>
<path d="M29.5462 60.7364L27.0218 65.8617C26.9583 65.8479 26.893 65.8406 26.8258 65.8406C26.5986 65.8406 26.3906 65.9243 26.2315 66.0641L24.2148 63.8893C24.2599 63.6997 24.3032 63.5056 24.3436 63.306C24.5387 62.3464 24.6776 61.2737 24.7908 60.1384H28.9961C29.0936 60.4025 29.2932 60.6177 29.5462 60.7364Z" fill="#110C24"/>
<path d="M28.9575 77.8027L33.2668 77.8569C32.8206 76.5717 32.4434 75.6894 32.6384 74.7667L30.1811 70.5862C29.1268 71.8797 28.1746 73.2523 27.9915 74.1687C27.8361 74.947 28.2905 76.269 28.9575 77.8027Z" fill="#110C24"/>
<path d="M34.1055 72.5659C34.3999 72.2844 34.6916 71.9974 34.9795 71.7094L30.4982 70.1997C30.4403 70.2687 30.3832 70.3377 30.3262 70.4067L32.7522 74.3728C32.961 73.8328 33.3815 73.2578 34.1064 72.5659H34.1055Z" fill="#110C24"/>
<path d="M34.6116 65.2882C32.9556 65.6995 32.0531 66.579 31.2895 67.6995C31.2499 67.7566 31.2122 67.8145 31.1736 67.8725L31.2122 67.7023L27.7144 66.9093C27.7245 66.8568 27.7291 66.8016 27.7291 66.7464C27.7291 66.4465 27.5828 66.1797 27.3574 66.0159L29.9095 60.8336C29.938 60.8363 29.9665 60.8373 29.996 60.8373C30.1947 60.8373 30.3805 60.783 30.5397 60.6882L34.6116 65.2882Z" fill="#110C24"/>
<path d="M33.849 79.8058C33.7073 79.2152 33.549 78.6954 33.3936 78.2271L29.1211 78.1729C29.1524 78.2446 29.1846 78.3155 29.2168 78.3872L34.0918 80.7875C33.998 80.4167 33.9161 80.0864 33.849 79.8049V79.8058Z" fill="#110C24"/>
<path d="M34.6753 83.0386C34.5051 82.3946 34.3477 81.7929 34.2107 81.2575L29.457 78.917C30.1415 80.4055 30.9253 82.0082 31.4994 83.4691L34.6762 83.0386H34.6753Z" fill="#110C24"/>
<path d="M35.23 71.4609C35.5051 71.1821 35.7747 70.9034 36.036 70.6283L33.2364 67.2114C32.8822 67.5684 31.7552 68.7193 30.6328 70.0432L35.23 71.4618V71.4609Z" fill="#110C24"/>
<path d="M36.6397 54.9375L30.8796 59.1796C30.7536 58.991 30.5687 58.8456 30.3516 58.7684L30.7012 46.3787C30.9238 46.3631 31.1556 46.3502 31.3985 46.3383C31.4123 46.3373 31.4252 46.3373 31.439 46.3364H31.4565L36.4622 53.7801C36.3775 53.9181 36.3279 54.081 36.3279 54.2558C36.3279 54.5281 36.4484 54.7719 36.6397 54.9375Z" fill="#110C24"/>
<path d="M44.8152 52.6359L41.5179 60.0208H41.517C41.4489 60.007 41.3799 60.0005 41.3082 60.0005C40.6872 60.0005 40.1839 60.5038 40.1839 61.1248C40.1839 61.3134 40.2299 61.4909 40.3127 61.6464L37.5261 65.0412C37.4138 65.0384 37.2997 65.0357 37.1893 65.0338C36.6097 65.0265 36.089 65.0522 35.618 65.1084C35.4101 65.1332 35.2123 65.1636 35.0228 65.1985L30.8184 60.4486C30.9702 60.2636 31.0612 60.0281 31.0612 59.7714C31.0612 59.6859 31.0511 59.604 31.0318 59.524L37.0026 55.1282C37.0762 55.1475 37.1535 55.1577 37.2326 55.1577C37.6144 55.1577 37.941 54.9212 38.0735 54.5863L44.4895 52.1548C44.5484 52.3461 44.6634 52.5127 44.8152 52.6359Z" fill="#110C24"/>
<path d="M65.7032 67.4967L66.6122 64.3558L63.0389 63.5002L61.0352 66.102C61.0352 66.102 63.6222 67.0422 65.7041 67.4967H65.7032Z" fill="#110C24"/>
<path d="M37.9262 46.9849L37.2518 53.3513H37.2343C37.0457 53.3513 36.8709 53.4092 36.7256 53.5086L31.8965 46.3261C32.1283 46.3243 32.3629 46.328 32.603 46.3372C34.1845 46.4016 35.9344 46.6951 37.9262 46.9849Z" fill="#110C24"/>
<path d="M23.4293 54.9327L23.7991 51.1028C23.3612 52.2473 22.3299 52.9106 21.2305 53.2951L23.4283 54.9336L23.4293 54.9327Z" fill="#110C24"/>
<path d="M48.4149 47.5188L45.7791 50.909C45.676 50.8722 45.5647 50.8528 45.4488 50.8528C44.9207 50.8528 44.4874 51.2604 44.4478 51.7793L38.133 54.1722C38.1026 53.8447 37.8974 53.5668 37.6113 53.4353L38.2884 47.0376C38.5267 47.0716 38.7668 47.1057 39.0125 47.1388C41.674 47.5013 44.7579 47.7874 48.4149 47.5188Z" fill="#110C24"/>
<path d="M30.3306 46.4055L29.9829 58.705C29.8881 58.7059 29.7961 58.7188 29.7087 58.7436L25.6699 50.9889C25.7316 50.6347 25.7969 50.3063 25.8705 50.0046C26.5182 47.3071 27.6663 46.6355 30.3306 46.4055Z" fill="#110C24"/>
<path d="M56.822 26.3184L56.9195 23.8399C56.5055 23.5666 55.9967 23.344 55.3822 23.2529C55.3822 23.2529 55.1936 23.8491 55.0859 24.6108L56.822 26.3184Z" fill="#110C24"/>
<path d="M60.5918 25.47L61.1125 25.9908L64.6527 22.4506V11.5045C65.1099 11.3508 65.4402 10.9193 65.4402 10.4097C65.4402 9.77119 64.9232 9.25415 64.2847 9.25415C63.6462 9.25415 63.1292 9.77119 63.1292 10.4097C63.1292 10.9193 63.4594 11.3508 63.9167 11.5045V22.1452L62.8237 23.2381V15.385C63.281 15.2314 63.6112 14.7999 63.6112 14.2902C63.6112 13.6517 63.0942 13.1347 62.4557 13.1347C61.8172 13.1347 61.3002 13.6517 61.3002 14.2902C61.3002 14.7999 61.6305 15.2314 62.0877 15.385V23.9741L60.5918 25.47Z" fill="#110C24"/>
<path d="M63.8349 28.0422L62.9489 29.7322C62.7999 29.608 62.6076 29.5335 62.3979 29.5335C62.2599 29.5335 62.1292 29.5657 62.0133 29.6237L59.5137 26.9419L60.1632 26.9207L62.9867 26.8306L63.8349 28.0422Z" fill="#110C24"/>
<path d="M57.1777 26.6526C57.5945 26.4262 58.0306 26.0895 58.4253 25.589C58.4253 25.589 58.0858 24.7813 57.278 24.1069L57.1777 26.6526Z" fill="#110C24"/>
<path d="M31.0623 68.0441C30.5177 68.9006 30.0154 69.874 29.3125 70.875C28.3842 72.197 27.9564 72.6101 27.4173 73.0084C27.1974 73.1704 26.9582 73.3314 26.6602 73.5503L26.8837 67.6467C27.1698 67.6283 27.4201 67.4765 27.5728 67.2529L31.0623 68.0441Z" fill="#110C24"/>
<path d="M52.3971 66.1449C52.3603 66.1467 52.3226 66.1476 52.2848 66.1504C51.397 66.2185 49.9637 66.1136 48.2424 65.9434C48.0207 65.9222 47.7934 65.8983 47.5625 65.8753L52.0696 56.8952L52.1376 56.759L52.1422 56.92L52.3971 66.1449Z" fill="#110C24"/>
<path d="M55.3418 89.7617C55.3501 91.0782 55.3565 92.1942 55.362 92.9753C56.5939 92.7499 57.8083 92.4766 59.0034 92.1574C58.9951 91.8207 58.985 91.437 58.9749 91.0129L55.3418 89.7617Z" fill="#110C24"/>
<path d="M67.6679 73.9634L65.2483 77.0997L64.5215 78.0417C65.5583 77.2101 66.6577 76.1511 67.6679 74.8273V73.9634Z" fill="#110C24"/>
<path d="M37.3242 92.7685C36.1301 92.5219 34.9525 92.2293 33.7942 91.8926C33.475 91.7997 33.1576 91.704 32.8411 91.6047C32.7224 90.5871 32.601 89.4951 32.4961 88.4666L36.4484 89.5899C36.764 90.7417 37.0657 91.8328 37.3242 92.7685Z" fill="#110C24"/>
<path d="M18.7896 55.4906L20.476 53.5154C18.9865 53.8769 17.5918 53.8107 17.5918 53.8107C17.7454 54.5421 18.1999 55.0858 18.7896 55.4906Z" fill="#110C24"/>
<path d="M67.2495 9.19465V21.2862L63.0645 25.4713L63.5852 25.992L71.1669 18.4103V10.9058C71.6241 10.7522 71.9544 10.3207 71.9544 9.81105C71.9544 9.17257 71.4374 8.65553 70.7989 8.65553C70.1604 8.65553 69.6434 9.17257 69.6434 9.81105C69.6434 10.3207 69.9736 10.7522 70.4309 10.9058V18.1058L67.9855 20.5502V9.19465C68.4428 9.04101 68.773 8.60953 68.773 8.09985C68.773 7.46137 68.256 6.94434 67.6175 6.94434C66.979 6.94434 66.462 7.46137 66.462 8.09985C66.462 8.60953 66.7923 9.04101 67.2495 9.19465Z" fill="#110C24"/>
<path d="M20.4224 81.6679L17.7811 79.0266C17.6634 80.6946 17.6109 82.3147 17.7038 83.5576C18.4665 84.1657 19.2485 84.749 20.0489 85.3084C20.013 84.3065 20.0774 83.0314 20.4215 81.6679H20.4224Z" fill="#110C24"/>
<path d="M23.6702 75.436L17.8798 77.7581C17.8743 77.817 17.8697 77.8759 17.8641 77.9347C17.8467 78.1381 17.8301 78.3414 17.8145 78.5447L20.5312 81.2615C20.58 81.0949 20.6315 80.9275 20.6885 80.7591C21.1596 79.3782 21.9443 77.9513 23.2158 76.6569C23.5433 76.3238 23.8432 76.0258 24.1201 75.7571L23.6702 75.437V75.436Z" fill="#110C24"/>
<path d="M63.2812 63.1806L66.711 64.0022L66.9677 63.1125L64.9152 61.0591L63.2812 63.1806Z" fill="#110C24"/>
<path d="M66.8962 69.882C66.6984 70.4589 66.4335 71.113 66.082 71.7947L70.3407 68.1975L66.8962 69.882Z" fill="#110C24"/>
<path d="M60.2207 77.3381V80.617C60.2207 80.617 61.4112 80.1865 63.0157 79.1386L60.2207 77.3391V77.3381Z" fill="#110C24"/>
<path d="M67.0703 64.0877L68.2194 64.3628L67.2663 63.4097L67.0703 64.0877Z" fill="#110C24"/>
<path d="M59.6159 61.9184L54.9258 68.2986C54.6498 67.3749 54.2036 66.6757 53.509 66.3472C53.2873 66.2424 53.0407 66.1761 52.7675 66.1513L52.5117 56.9485C52.7003 56.9255 52.8705 56.8437 53.0048 56.7231L59.0262 60.8236C59.006 60.8981 58.995 60.9772 58.995 61.0591C58.995 61.4593 59.2553 61.7988 59.6159 61.9184Z" fill="#110C24"/>
<path d="M55.2976 80.1318C55.2976 80.2873 55.2985 80.4437 55.2994 80.601L57.9352 82.6039L58.8386 81.3711C58.8368 81.0316 58.8359 80.6921 58.8359 80.3517L55.293 78.1741C55.2948 78.8052 55.2966 79.4602 55.2985 80.13L55.2976 80.1318Z" fill="#110C24"/>
<path d="M69.395 44.0606C69.3996 44.0238 69.4023 43.987 69.4023 43.9493C69.4023 43.7303 69.3241 43.5298 69.1953 43.3734L70.1862 41.9409C70.2386 42.0909 70.2901 42.239 70.3398 42.3862C70.3656 42.4626 70.3904 42.5389 70.4143 42.6162C70.6112 43.2317 70.7648 43.8692 70.8789 44.5169C70.8927 44.5942 70.9056 44.6724 70.9185 44.7497L69.395 44.0606Z" fill="#110C24"/>
<path d="M58.8328 79.5708C58.8355 77.1448 58.8668 74.7666 58.9459 72.7684C58.9533 72.588 58.9607 72.4142 58.968 72.2412L55.2871 75.222C55.2871 75.3876 55.2871 75.5569 55.2871 75.7298C55.2871 76.2515 55.2871 76.8081 55.288 77.3923C55.288 77.5082 55.288 77.625 55.288 77.7419L58.8319 79.9195C58.8319 79.8027 58.8319 79.6868 58.8319 79.5699L58.8328 79.5708Z" fill="#110C24"/>
<path d="M58.8494 83.3001C58.8485 83.1749 58.8466 83.0508 58.8457 82.9256V82.8299C58.8439 82.5512 58.842 82.2715 58.8402 81.99L58.2266 82.8272L58.8494 83.3001Z" fill="#110C24"/>
<path d="M68.7187 64.8622L66.9697 64.4436L66.0645 67.5734C66.4637 67.6516 66.8363 67.7068 67.1574 67.7289L69.4905 65.6332L68.7196 64.8622H68.7187Z" fill="#110C24"/>
<path d="M55.3027 81.0635C55.3092 82.7572 55.3175 84.5107 55.3267 86.163L57.7187 82.8998L55.3027 81.0635Z" fill="#110C24"/>
<path d="M69.7492 65.8911L67.3941 68.0071C67.3425 68.2895 67.2395 68.7781 67.0527 69.3926L70.9922 67.4662C71.0115 67.3751 71.0308 67.284 71.0483 67.192L69.7483 65.892L69.7492 65.8911Z" fill="#110C24"/>
<path d="M69.8885 53.7846C68.9206 55.5031 67.2775 56.471 65.9702 57.8675L64.3262 51.3723C64.6408 51.2306 64.8588 50.9142 64.8588 50.5471C64.8588 50.3217 64.776 50.1147 64.639 49.9574L68.2049 44.8045C68.2969 44.8367 68.3962 44.8541 68.4993 44.8541C68.8296 44.8541 69.1194 44.6766 69.2767 44.4116L70.9833 45.1844C71.1158 45.2442 71.1084 46.4145 71.1176 46.5828C71.251 48.9472 71.0725 51.6814 69.8885 53.7846Z" fill="#110C24"/>
<path d="M70.8053 68.2847L68.0352 70.8377V74.3254C69.1879 72.6997 70.1916 70.7061 70.8053 68.2847Z" fill="#110C24"/>
<path d="M67.6681 73.3619V70.9368L65.5567 72.7197C64.7885 73.9507 63.7195 75.1936 62.2383 76.1688L65.0351 76.7732L67.6672 73.361L67.6681 73.3619Z" fill="#110C24"/>
<path d="M58.9629 90.4965C58.9234 88.6998 58.8783 86.3161 58.8525 83.764L58.008 83.1218L55.3262 86.7797C55.328 87.0971 55.3299 87.4099 55.3317 87.7163C55.3345 88.2462 55.3372 88.7596 55.34 89.2481C55.34 89.2895 55.34 89.33 55.34 89.3705L58.9657 90.6198C58.9648 90.5784 58.9638 90.5389 58.9629 90.4965Z" fill="#110C24"/>
<path d="M61.7905 76.4485C61.3922 76.6831 60.9671 76.8993 60.5117 77.0906L63.3444 78.915C63.372 78.8966 63.3996 78.8764 63.4281 78.857L64.7869 77.0962L61.7905 76.4485Z" fill="#110C24"/>
<path d="M52.1402 56.759L52.0723 56.8948C52.0961 56.904 52.12 56.9123 52.1447 56.9196L52.1402 56.759Z" fill="#FCF7FF"/>
<path d="M122.1 6.5553H109.467V26.8111H122.1C125.055 26.8111 127.732 25.6782 129.667 23.8458C131.604 22.0135 132.801 19.48 132.801 16.6841C132.801 11.0888 128.011 6.5553 122.1 6.5553ZM126.523 20.4927C125.493 21.4682 124.38 21.8069 122.808 21.8069L114.881 21.7036C114.509 21.6985 114.209 21.4123 114.209 21.0601V12.0168C114.209 11.6188 114.55 11.2954 114.972 11.2954H122.397C125.552 11.2954 128.213 13.7374 128.191 16.723C128.179 18.1947 127.544 19.5257 126.524 20.4927H126.523ZM157.352 8.67047C157.352 9.99309 156.283 11.0651 154.964 11.0651H135.893C134.575 11.0651 133.506 9.99309 133.506 8.67047C133.506 7.34786 134.575 6.27588 135.893 6.27588H154.964C156.283 6.27588 157.352 7.34786 157.352 8.67047ZM157.352 24.4182C157.352 25.7409 156.283 26.8128 154.964 26.8128H135.893C134.575 26.8128 133.506 25.7409 133.506 24.4182C133.506 23.0956 134.575 22.0236 135.893 22.0236H154.964C156.283 22.0236 157.352 23.0956 157.352 24.4182ZM135.328 16.5435C135.328 15.2209 136.397 14.1489 137.716 14.1489H153.142C154.461 14.1489 155.53 15.2209 155.53 16.5435C155.53 17.8661 154.461 18.9381 153.142 18.9381H137.716C136.397 18.9381 135.328 17.8661 135.328 16.5435ZM183.441 8.67047C183.441 9.99309 182.372 11.0651 181.053 11.0651H161.982C160.663 11.0651 159.594 9.99309 159.594 8.67047C159.594 7.34786 160.663 6.27588 161.982 6.27588H181.053C182.372 6.27588 183.441 7.34786 183.441 8.67047ZM183.441 24.4182C183.441 25.7409 182.372 26.8128 181.053 26.8128H161.982C160.663 26.8128 159.594 25.7409 159.594 24.4182C159.594 23.0956 160.663 22.0236 161.982 22.0236H181.053C182.372 22.0236 183.441 23.0956 183.441 24.4182ZM161.418 16.5452C161.418 15.2226 162.487 14.1506 163.806 14.1506H179.232C180.551 14.1506 181.62 15.2226 181.62 16.5452C181.62 17.8678 180.551 18.9398 179.232 18.9398H163.806C162.487 18.9398 161.418 17.8678 161.418 16.5452ZM205.532 20.6705L209.116 26.8145H203.552L200.389 21.3937H190.871V26.8145H186.053V16.679H202.152C202.905 16.679 203.589 16.3759 204.084 15.8864C204.578 15.397 204.884 14.7213 204.884 13.9745C204.884 12.4808 203.661 11.2717 202.153 11.2717H186.055V6.54684H202.305C206.448 6.54684 209.805 9.86946 209.805 13.9677C209.805 16.0168 208.966 17.8729 207.608 19.2158C207.008 19.8086 206.308 20.3031 205.532 20.6672V20.6705ZM133.105 30.0068V50.2711H128.541V42.4285H114.031V50.2711H109.467V30.0068H114.031V37.8493H128.541V30.0068H133.105ZM161.592 50.2711H156.075L148.268 36.713C148.079 36.3844 147.605 36.3844 147.415 36.713L139.609 50.2711H134.092L144.638 31.9526C146.061 29.4784 149.621 29.4784 151.046 31.9526L161.592 50.2711ZM179.489 38.0593V35.2041H165.731V45.509H179.489V42.564H185.082V42.6537C185.082 47.0517 181.527 50.6165 177.142 50.6165H167.604C163.73 50.6165 160.591 47.4683 160.591 43.5835V37.1296C160.591 33.2447 163.73 30.0965 167.604 30.0965H177.142C181.527 30.0965 185.082 33.6613 185.082 38.0593H179.489ZM211.262 50.1491L211.119 50.2711H204.919L196.185 39.8324L191.197 44.0289V50.2694H186.261V30.0051H191.197V37.5648L193.011 36.039L196.793 32.8552L200.181 30.0051H207.861L199.965 36.6486L211.261 50.1474L211.262 50.1491Z" fill="url(#paint1_linear_952_6202)"/>
<path d="M131.373 86.9355L109.775 87.0173V82.1087L119.756 73.805C122.988 71.1462 124.338 69.2646 124.338 66.7694C124.338 63.7015 122.824 62.0653 120.124 62.0653C117.302 62.0653 115.666 63.9879 115.666 67.383H109.08C109.08 60.5928 113.416 56.175 120.083 56.175C126.996 56.175 131.128 59.8974 131.128 66.3603C131.128 70.4917 128.633 73.8459 124.869 76.9956L120.329 80.7998H131.373V86.9355Z" fill="white"/>
<path d="M131.373 86.9355L109.775 87.0173V82.1087L119.756 73.805C122.988 71.1462 124.338 69.2646 124.338 66.7694C124.338 63.7015 122.824 62.0653 120.124 62.0653C117.302 62.0653 115.666 63.9879 115.666 67.383H109.08C109.08 60.5928 113.416 56.175 120.083 56.175C126.996 56.175 131.128 59.8974 131.128 66.3603C131.128 70.4917 128.633 73.8459 124.869 76.9956L120.329 80.7998H131.373V86.9355Z" fill="url(#paint2_linear_952_6202)"/>
<path d="M134.092 71.9643C134.092 62.5971 139.41 56.175 147.304 56.175C155.199 56.175 160.517 62.5971 160.517 71.9643C160.517 81.3315 155.608 87.549 147.304 87.549C139.001 87.549 134.092 81.3315 134.092 71.9643ZM140.637 71.9643C140.637 78.4682 143.091 81.7406 147.304 81.7406C151.518 81.7406 153.972 78.4682 153.972 71.9643C153.972 65.2559 151.518 61.9835 147.304 61.9835C143.091 61.9835 140.637 65.2559 140.637 71.9643Z" fill="white"/>
<path d="M134.092 71.9643C134.092 62.5971 139.41 56.175 147.304 56.175C155.199 56.175 160.517 62.5971 160.517 71.9643C160.517 81.3315 155.608 87.549 147.304 87.549C139.001 87.549 134.092 81.3315 134.092 71.9643ZM140.637 71.9643C140.637 78.4682 143.091 81.7406 147.304 81.7406C151.518 81.7406 153.972 78.4682 153.972 71.9643C153.972 65.2559 151.518 61.9835 147.304 61.9835C143.091 61.9835 140.637 65.2559 140.637 71.9643Z" fill="url(#paint3_linear_952_6202)"/>
<path d="M185.5 86.9355L163.902 87.0173V82.1087L173.883 73.805C177.115 71.1462 178.465 69.2646 178.465 66.7694C178.465 63.7015 176.951 62.0653 174.251 62.0653C171.429 62.0653 169.793 63.9879 169.793 67.383H163.207C163.207 60.5928 167.543 56.175 174.21 56.175C181.123 56.175 185.255 59.8974 185.255 66.3603C185.255 70.4917 182.76 73.8459 178.996 76.9956L174.456 80.7998H185.5V86.9355Z" fill="white"/>
<path d="M185.5 86.9355L163.902 87.0173V82.1087L173.883 73.805C177.115 71.1462 178.465 69.2646 178.465 66.7694C178.465 63.7015 176.951 62.0653 174.251 62.0653C171.429 62.0653 169.793 63.9879 169.793 67.383H163.207C163.207 60.5928 167.543 56.175 174.21 56.175C181.123 56.175 185.255 59.8974 185.255 66.3603C185.255 70.4917 182.76 73.8459 178.996 76.9956L174.456 80.7998H185.5V86.9355Z" fill="url(#paint4_linear_952_6202)"/>
<path d="M193.005 64.8878L198.936 56.7477H206.504L199.591 66.0331C200 65.9513 200.409 65.9104 200.818 65.9104C207.035 65.9104 211.289 70.2054 211.289 76.4229C211.289 83.0495 206.422 87.549 199.713 87.549C192.923 87.549 187.974 82.7223 187.974 76.382C187.974 72.6597 189.324 69.9191 193.005 64.8878ZM194.764 76.4638C194.764 79.5726 196.768 81.6997 199.713 81.6997C202.577 81.6997 204.581 79.5726 204.581 76.4638C204.581 73.3551 202.618 71.2689 199.713 71.2689C196.727 71.2689 194.764 73.3551 194.764 76.4638Z" fill="white"/>
<path d="M193.005 64.8878L198.936 56.7477H206.504L199.591 66.0331C200 65.9513 200.409 65.9104 200.818 65.9104C207.035 65.9104 211.289 70.2054 211.289 76.4229C211.289 83.0495 206.422 87.549 199.713 87.549C192.923 87.549 187.974 82.7223 187.974 76.382C187.974 72.6597 189.324 69.9191 193.005 64.8878ZM194.764 76.4638C194.764 79.5726 196.768 81.6997 199.713 81.6997C202.577 81.6997 204.581 79.5726 204.581 76.4638C204.581 73.3551 202.618 71.2689 199.713 71.2689C196.727 71.2689 194.764 73.3551 194.764 76.4638Z" fill="url(#paint5_linear_952_6202)"/>
<defs>
<linearGradient id="paint0_linear_952_6202" x1="0.00390625" y1="46.8729" x2="93.7444" y2="46.8729" gradientUnits="userSpaceOnUse">
<stop stop-color="#8247FF"/>
<stop offset="1" stop-color="#F5C144"/>
</linearGradient>
<linearGradient id="paint1_linear_952_6202" x1="211.35" y1="6.19936" x2="85.0059" y2="64.7756" gradientUnits="userSpaceOnUse">
<stop stop-color="#8247FF"/>
<stop offset="1" stop-color="#F5C144"/>
</linearGradient>
<linearGradient id="paint2_linear_952_6202" x1="211.377" y1="56.1209" x2="103.811" y2="126.889" gradientUnits="userSpaceOnUse">
<stop stop-color="#8247FF"/>
<stop offset="1" stop-color="#F5C144"/>
</linearGradient>
<linearGradient id="paint3_linear_952_6202" x1="211.377" y1="56.1209" x2="103.811" y2="126.889" gradientUnits="userSpaceOnUse">
<stop stop-color="#8247FF"/>
<stop offset="1" stop-color="#F5C144"/>
</linearGradient>
<linearGradient id="paint4_linear_952_6202" x1="211.377" y1="56.1209" x2="103.811" y2="126.889" gradientUnits="userSpaceOnUse">
<stop stop-color="#8247FF"/>
<stop offset="1" stop-color="#F5C144"/>
</linearGradient>
<linearGradient id="paint5_linear_952_6202" x1="211.377" y1="56.1209" x2="103.811" y2="126.889" gradientUnits="userSpaceOnUse">
<stop stop-color="#8247FF"/>
<stop offset="1" stop-color="#F5C144"/>
</linearGradient>
</defs>
</svg>
